  0
SECTION
  2
HEADER
  9
$ACADVER
  1
AC1018
  9
$ACADMAINTVER
 70
     0
  9
$DWGCODEPAGE
  3
ANSI_1252
  9
$EXTMIN
 10
240829.800547318
 20
9465706.5005
 30
0.0
  9
$EXTMAX
 10
693708.693399999
 20
10087954.3451801
 30
0.0
  9
$LIMMIN
 10
0.0
 20
0.0
  9
$LIMMAX
 10
12.0
 20
9.0
  9
$ORTHOMODE
 70
     0
  9
$REGENMODE
 70
     1
  9
$FILLMODE
 70
     1
  9
$QTEXTMODE
 70
     0
  9
$MIRRTEXT
 70
     1
  9
$LTSCALE
 40
1.0
  9
$ATTMODE
 70
     1
  9
$TEXTSIZE
 40
0.2
  9
$TRACEWID
 40
0.05
  9
$TEXTSTYLE
  7
Standard
  9
$CLAYER
  8
0
  9
$CELTYPE
  6
ByLayer
  9
$CECOLOR
 62
   256
  9
$CELTSCALE
 40
1.0
  9
$DISPSILH
 70
     0
  9
$LUNITS
 70
     2
  9
$LUPREC
 70
     4
  9
$SKETCHINC
 40
0.1
  9
$FILLETRAD
 40
0.5
  9
$AUNITS
 70
     0
  9
$AUPREC
 70
     0
  9
$MENU
  1
.
  9
$ELEVATION
 40
0.0
  9
$PELEVATION
 40
0.0
  9
$THICKNESS
 40
0.0
  9
$LIMCHECK
 70
     0
  9
$CHAMFERA
 40
0.5
  9
$CHAMFERB
 40
0.5
  9
$CHAMFERC
 40
1.0
  9
$CHAMFERD
 40
0.0
  9
$SKPOLY
 70
     0
  9
$ANGBASE
 50
0.0
  9
$ANGDIR
 70
     0
  9
$PDMODE
 70
     0
  9
$PDSIZE
 40
0.0
  9
$PLINEWID
 40
0.0
  9
$SPLFRAME
 70
     0
  9
$SPLINETYPE
 70
     6
  9
$SPLINESEGS
 70
     8
  9
$HANDSEED
  5
00020001
  9
$SURFTAB1
 70
     6
  9
$SURFTAB2
 70
     6
  9
$SURFTYPE
 70
     6
  9
$SURFU
 70
     6
  9
$SURFV
 70
     6
  9
$UCSBASE
  2

  9
$UCSNAME
  2

  9
$UCSORG
 10
0.0
 20
0.0
 30
0.0
  9
$UCSXDIR
 10
1.0
 20
0.0
 30
0.0
  9
$UCSYDIR
 10
0.0
 20
1.0
 30
0.0
  9
$UCSORTHOREF
  2

  9
$UCSORTHOVIEW
 70
     0
  9
$UCSORGTOP
 10
0.0
 20
0.0
 30
0.0
  9
$UCSORGBOTTOM
 10
0.0
 20
0.0
 30
0.0
  9
$UCSORGLEFT
 10
0.0
 20
0.0
 30
0.0
  9
$UCSORGRIGHT
 10
0.0
 20
0.0
 30
0.0
  9
$UCSORGFRONT
 10
0.0
 20
0.0
 30
0.0
  9
$UCSORGBACK
 10
0.0
 20
0.0
 30
0.0
  9
$PUCSBASE
  2

  9
$PUCSNAME
  2

  9
$PUCSORG
 10
0.0
 20
0.0
 30
0.0
  9
$PUCSXDIR
 10
1.0
 20
0.0
 30
0.0
  9
$PUCSYDIR
 10
0.0
 20
1.0
 30
0.0
  9
$PUCSORTHOREF
  2

  9
$PUCSORTHOVIEW
 70
     0
  9
$PUCSORGTOP
 10
0.0
 20
0.0
 30
0.0
  9
$PUCSORGBOTTOM
 10
0.0
 20
0.0
 30
0.0
  9
$PUCSORGLEFT
 10
0.0
 20
0.0
 30
0.0
  9
$PUCSORGRIGHT
 10
0.0
 20
0.0
 30
0.0
  9
$PUCSORGFRONT
 10
0.0
 20
0.0
 30
0.0
  9
$PUCSORGBACK
 10
0.0
 20
0.0
 30
0.0
  9
$WORLDVIEW
 70
     1
  9
$SHADEDGE
 70
     3
  9
$SHADEDIF
 70
    70
  9
$TILEMODE
 70
     1
  9
$MAXACTVP
 70
    64
  9
$PINSBASE
 10
0.0
 20
0.0
 30
0.0
  9
$PLIMCHECK
 70
     0
  9
$PEXTMIN
 10
1.000000000000000E+20
 20
1.000000000000000E+20
 30
1.000000000000000E+20
  9
$PEXTMAX
 10
-1.000000000000000E+20
 20
-1.000000000000000E+20
 30
-1.000000000000000E+20
  9
$PLIMMIN
 10
0.0
 20
0.0
  9
$PLIMMAX
 10
12.0
 20
9.0
  9
$UNITMODE
 70
     0
  9
$VISRETAIN
 70
     1
  9
$PLINEGEN
 70
     0
  9
$PSLTSCALE
 70
     1
  9
$TREEDEPTH
 70
  3020
  9
$CMLSTYLE
  2
Standard
  9
$CMLJUST
 70
     0
  9
$CMLSCALE
 40
1.0
  9
$PROXYGRAPHICS
 70
     1
  9
$MEASUREMENT
 70
     0
  9
$CELWEIGHT
370
    -1
  9
$ENDCAPS
280
     0
  9
$JOINSTYLE
280
     0
  9
$LWDISPLAY
290
     0
  9
$INSUNITS
 70
     1
  9
$HYPERLINKBASE
  1

  9
$STYLESHEET
  1

  9
$XEDIT
290
     1
  9
$CEPSNTYPE
380
     0
  9
$PSTYLEMODE
290
     1
  9
$EXTNAMES
290
     1
  9
$PSVPSCALE
 40
0.0
  9
$OLESTARTUP
290
     0
  9
$SORTENTS
280
   127
  9
$INDEXCTL
280
     0
  9
$HIDETEXT
280
     1
  9
$XCLIPFRAME
290
     0
  9
$HALOGAP
280
     0
  9
$OBSCOLOR
 70
   257
  9
$OBSLTYPE
280
     0
  9
$INTERSECTIONDISPLAY
280
     0
  9
$INTERSECTIONCOLOR
 70
   257
  9
$DIMASSOC
280
     2
  9
$PROJECTNAME
  1

  0
ENDSEC
  0
SECTION
  2
CLASSES
  0
CLASS
  1
ACDBDICTIONARYWDFLT
  2
AcDbDictionaryWithDefault
  3
ObjectDBX Classes
 90
        0
 91
        4
280
     0
281
     0
  0
ENDSEC
  0
SECTION
  2
TABLES
  0
TABLE
  2
VPORT
  5
8
330
0
100
AcDbSymbolTable
 70
     1
  0
VPORT
  5
29
330
8
100
AcDbSymbolTableRecord
100
AcDbViewportTableRecord
  2
*Active
 70
     0
 10
0.0
 20
0.0
 11
1.0
 21
1.0
 12
80.25
 22
106.4409457059851
 13
0.0
 23
0.0
 14
0.5
 24
0.5
 15
0.5
 25
0.5
 16
0.0
 26
0.0
 36
1.0
 17
0.0
 27
0.0
 37
0.0
 40
113.3818914119703
 41
0.8863849310366128
 42
50.0
 43
0.0
 44
0.0
 50
0.0
 51
0.0
 71
     0
 72
  1000
 73
     1
 74
     3
 75
     0
 76
     0
 77
     0
 78
     0
281
     0
 65
     1
110
0.0
120
0.0
130
0.0
111
1.0
121
0.0
131
0.0
112
0.0
122
1.0
132
0.0
 79
     0
146
0.0
  0
ENDTAB
  0
TABLE
  2
LTYPE
  5
5
330
0
100
AcDbSymbolTable
 70
     1
  0
LTYPE
  5
14
330
5
100
AcDbSymbolTableRecord
100
AcDbLinetypeTableRecord
  2
ByBlock
 70
     0
  3

 72
    65
 73
     0
 40
0.0
  0
LTYPE
  5
15
330
5
100
AcDbSymbolTableRecord
100
AcDbLinetypeTableRecord
  2
ByLayer
 70
     0
  3

 72
    65
 73
     0
 40
0.0
  0
LTYPE
  5
16
330
5
100
AcDbSymbolTableRecord
100
AcDbLinetypeTableRecord
  2
Continuous
 70
     0
  3
Solid line
 72
    65
 73
     0
 40
0.0
  0
ENDTAB
  0
TABLE
  2
LAYER
  5
2
330
0
100
AcDbSymbolTable
 70
     1
  0
LAYER
  5
10
330
2
100
AcDbSymbolTableRecord
100
AcDbLayerTableRecord
  2
0
 70
     0
 62
     7
  6
Continuous
370
    -3
390
F
  0
ENDTAB
  0
TABLE
  2
STYLE
  5
3
330
0
100
AcDbSymbolTable
 70
     1
  0
STYLE
  5
11
330
3
100
AcDbSymbolTableRecord
100
AcDbTextStyleTableRecord
  2
Standard
 70
     0
 40
0.0
 41
1.0
 50
0.0
 71
     0
 42
0.2
  3
txt
  4

  0
ENDTAB
  0
TABLE
  2
VIEW
  5
6
330
0
100
AcDbSymbolTable
 70
     0
  0
ENDTAB
  0
TABLE
  2
UCS
  5
7
330
0
100
AcDbSymbolTable
 70
     0
  0
ENDTAB
  0
TABLE
  2
APPID
  5
9
330
0
100
AcDbSymbolTable
 70
     1
  0
APPID
  5
12
330
9
100
AcDbSymbolTableRecord
100
AcDbRegAppTableRecord
  2
ACAD
 70
     0
  0
ENDTAB
  0
TABLE
  2
DIMSTYLE
  5
A
330
0
100
AcDbSymbolTable
 70
     1
100
AcDbDimStyleTable
  0
DIMSTYLE
105
27
330
A
100
AcDbSymbolTableRecord
100
AcDbDimStyleTableRecord
  2
Standard
 70
     0
340
11
  0
ENDTAB
  0
TABLE
  2
BLOCK_RECORD
  5
1
330
0
100
AcDbSymbolTable
 70
     1
  0
BLOCK_RECORD
  5
1F
330
1
100
AcDbSymbolTableRecord
100
AcDbBlockTableRecord
  2
*Model_Space
340
22
  0
BLOCK_RECORD
  5
1B
330
1
100
AcDbSymbolTableRecord
100
AcDbBlockTableRecord
  2
*Paper_Space
340
1E
  0
ENDTAB
  0
ENDSEC
  0
SECTION
  2
BLOCKS
  0
BLOCK
  5
20
330
1F
100
AcDbEntity
  8
0
100
AcDbBlockBegin
  2
*Model_Space
 70
     0
 10
0.0
 20
0.0
 30
0.0
  3
*Model_Space
  1

  0
ENDBLK
  5
21
330
1F
100
AcDbEntity
  8
0
100
AcDbBlockEnd
  0
BLOCK
  5
1C
330
1B
100
AcDbEntity
 67
     1
  8
0
100
AcDbBlockBegin
  2
*Paper_Space
 70
     0
 10
0.0
 20
0.0
 30
0.0
  3
*Paper_Space
  1

  0
ENDBLK
  5
1D
330
1B
100
AcDbEntity
 67
     1
  8
0
100
AcDbBlockEnd
  0
ENDSEC
  0
SECTION
  2
ENTITIES
  0
HATCH
  5
20000
100
AcDbEntity
  8
0
100
AcDbHatch
 10
0
 20
0
 30
0
210
0
220
0
230
1
  2
SOLID
 70
1
 71
0
 91
1
 92
2
 72
0
 73
1
 93
3831
 10
545882.64995459
 20
9591912.29188763
 10
545882.595020347
 20
9591877.95798571
 10
545882.012647028
 20
9591873.4931236
 10
545881.818522588
 20
9591866.76347636
 10
545881.883230735
 20
9591862.29861425
 10
545882.142063321
 20
9591857.89846028
 10
545882.077355175
 20
9591853.95126334
 10
545882.012647028
 20
9591848.70990347
 10
545881.689106295
 20
9591841.78613179
 10
545881.365565563
 20
9591835.31531714
 10
545881.559690002
 20
9591832.07990981
 10
545882.012647028
 20
9591827.6150477
 10
545882.789144787
 20
9591823.7325589
 10
545883.242101813
 20
9591821.0795249
 10
545883.371518106
 20
9591818.62061533
 10
545882.983269226
 20
9591812.79688214
 10
545882.336187761
 20
9591806.39077563
 10
545881.753814442
 20
9591801.21412391
 10
545881.171441123
 20
9591795.45509886
 10
545880.459651511
 20
9591788.53132718
 10
545880.006694485
 20
9591781.80167994
 10
545879.812570046
 20
9591777.40152598
 10
545879.941986339
 20
9591773.77786977
 10
545880.394943365
 20
9591767.43647141
 10
545880.783192244
 20
9591762.45394412
 10
545880.847900391
 20
9591755.14192357
 10
545880.912608537
 20
9591752.16534883
 10
545880.718484097
 20
9591748.47698447
 10
545880.200818925
 20
9591744.72391197
 10
545879.941986339
 20
9591740.51788245
 10
545879.618445606
 20
9591731.39403378
 10
545879.489029313
 20
9591726.21738206
 10
545879.35961302
 20
9591723.69376435
 10
545879.489029313
 20
9591722.658434
 10
545879.683153753
 20
9591720.26423258
 10
545879.683153753
 20
9591717.80532301
 10
545879.55373746
 20
9591714.56991568
 10
545879.489029313
 20
9591711.98158982
 10
545879.424321166
 20
9591709.91092913
 10
545879.55373746
 20
9591706.8049381
 10
545879.618445606
 20
9591704.0224878
 10
545879.424321166
 20
9591698.19875461
 10
545878.841947848
 20
9591690.75731775
 10
545878.712531555
 20
9591684.80416827
 10
545878.194866382
 20
9591682.08642612
 10
545877.547784917
 20
9591680.40401431
 10
545876.641870865
 20
9591678.91572694
 10
545875.60654052
 20
9591677.7509803
 10
545873.212339098
 20
9591675.74502776
 10
545870.106348064
 20
9591672.31549599
 10
545866.741524444
 20
9591668.82125608
 10
545864.412031168
 20
9591666.55647095
 10
545861.9531216
 20
9591664.29168582
 10
545859.105963152
 20
9591661.12098664
 10
545856.452929143
 20
9591657.62674673
 10
545854.64110104
 20
9591655.26489938
 10
545852.95868923
 20
9591653.55013349
 10
545852.408669984
 20
9591652.77363573
 10
545852.311607764
 20
9591652.15890834
 10
545852.441024058
 20
9591651.6088891
 10
545852.732210717
 20
9591651.09122392
 10
545852.76456479
 20
9591650.21766395
 10
545852.76456479
 20
9591648.50289806
 10
545852.991043303
 20
9591646.43223737
 10
545853.444000329
 20
9591645.04101222
 10
545854.188144014
 20
9591643.9733278
 10
545854.899933626
 20
9591643.00270561
 10
545855.644077312
 20
9591642.35562414
 10
545857.617675781
 20
9591641.06146121
 10
545858.879484639
 20
9591639.79965235
 10
545860.07658535
 20
9591638.24665684
 10
545860.561896449
 20
9591637.01720205
 10
545860.626604595
 20
9591635.49656061
 10
545860.497188302
 20
9591633.23177548
 10
545860.17364757
 20
9591629.28457854
 10
545859.720690544
 20
9591622.42551501
 10
545859.526566104
 20
9591615.63115962
 10
545859.914814983
 20
9591608.64267979
 10
545860.885437182
 20
9591602.17186514
 10
545862.114891966
 20
9591596.60696454
 10
545863.926720069
 20
9591591.55972911
 10
545866.320921491
 20
9591586.77132626
 10
545867.09741925
 20
9591585.21833074
 10
545868.520998474
 20
9591583.14767005
 10
545869.815161405
 20
9591580.94759307
 10
545871.432865068
 20
9591577.77689389
 10
545872.14465468
 20
9591574.99444359
 10
545872.431480034
 20
9591571.79319981
 10
545872.133221853
 20
9591571.78024528
 10
545793.207038787
 20
9591571.79478227
 10
545797.226378993
 20
9591419.76341892
 10
545797.22637899
 20
9591419.76341892
 10
545735.406097737
 20
9591458.10359857
 10
545664.56577424
 20
9591476.47035325
 10
545554.405270412
 20
9591488.68374806
 10
545457.594828427
 20
9591516.31387997
 10
545362.344394887
 20
9591571.87414055
 10
545216.823729673
 20
9591595.69425715
 10
544983.992667114
 20
9591672.42462169
 10
544817.301905672
 20
9591712.10481233
 10
544711.471422167
 20
9591735.92492702
 10
544669.131229144
 20
9591754.44501435
 10
544602.990927008
 20
9591770.31509055
 10
544539.490637083
 20
9591788.83517885
 10
544462.760286697
 20
9591810.00527997
 10
544354.279791521
 20
9591844.39544348
 10
544094.988607184
 20
9591910.54576026
 10
543975.928064014
 20
9591955.52597303
 10
543893.90768974
 20
9591984.6261109
 10
543827.757385746
 20
9591960.81600412
 10
543766.907106135
 20
9591939.64590927
 10
543666.606648334
 20
9591973.01606763
 10
543637.886516482
 20
9591965.56603457
 10
543597.566331867
 20
9591966.10603888
 10
543552.586126842
 20
9591987.2761385
 10
543473.215764797
 20
9592019.02628843
 10
543401.775440844
 20
9592090.466621
 10
543348.86520138
 20
9592153.96691613
 10
543275.184866375
 20
9592208.0771689
 10
543187.464467191
 20
9592265.08743566
 10
543110.734116148
 20
9592273.02747567
 10
543049.683836557
 20
9592272.96747811
 10
543002.253619116
 20
9592267.73745609
 10
542920.983246643
 20
9592261.26742986
 10
542877.903048938
 20
9592251.85738838
 10
542815.682763191
 20
9592233.60730698
 10
542657.852038766
 20
9592196.53714302
 10
542551.011548343
 20
9592170.47702756
 10
542462.501141594
 20
9592138.0868821
 10
542372.550730363
 20
9592153.96695924
 10
542285.230330017
 20
9592143.37691423
 10
542113.259544204
 20
9592183.0671047
 10
542004.779049478
 20
9592230.68732895
 10
541938.628746536
 20
9592230.68733181
 10
541875.128455391
 20
9592222.75729799
 10
541708.437693498
 20
9592257.14746373
 10
541457.086544335
 20
9592302.12768188
 10
541336.125992307
 20
9592347.41789586
 10
541234.835529648
 20
9592376.20803291
 10
541152.815155033
 20
9592400.02814622
 10
541039.044635446
 20
9592434.4183096
 10
540919.984091514
 20
9592466.16846102
 10
540732.123234816
 20
9592553.4788715
 10
540578.672533015
 20
9592577.29898776
 10
540422.561816721
 20
9592545.54884788
 10
540327.311378401
 20
9592495.27862005
 10
540184.440722215
 20
9592450.29841858
 10
540078.600237708
 20
9592455.58844735
 10
539967.479729886
 20
9592482.04857393
 10
539856.349220388
 20
9592468.8185175
 10
539753.168749464
 20
9592508.50870473
 10
539512.397649676
 20
9592579.93904392
 10
539292.78664741
 20
9592667.25945547
 10
538977.935211017
 20
9592807.48011473
 10
538599.583485681
 20
9592997.9810083
 10
538488.452979812
 20
9593077.36137876
 10
538282.082040594
 20
9593230.8220946
 10
538208.001701991
 20
9593249.34218293
 10
538163.021496784
 20
9593270.50228228
 10
538049.250978963
 20
9593355.17267722
 10
537760.849664565
 20
9593527.15348162
 10
537715.869459854
 20
9593561.55364202
 10
537644.429134742
 20
9593617.11390103
 10
537580.928845693
 20
9593664.73412311
 10
537475.098364144
 20
9593749.40451771
 10
537382.497942684
 20
9593820.84485077
 10
537221.097206824
 20
9593913.44528407
 10
537051.766435212
 20
9594021.92579089
 10
536935.345905159
 20
9594109.23619804
 10
536853.325531694
 20
9594170.09648188
 10
536721.0349293
 20
9594267.98693842
 10
536646.954591984
 20
9594323.5471975
 10
536546.414134323
 20
9594402.92756745
 10
536305.633038335
 20
9594596.06846742
 10
536080.74201457
 20
9594775.98930579
 10
535911.411244434
 20
9594932.0900322
 10
535501.299381216
 20
9595371.30207361
 10
535392.828888356
 20
9595487.72261471
 10
535093.847530008
 20
9595815.80413934
 10
535005.52712778
 20
9595887.11447158
 10
534943.026843611
 20
9595950.74476744
 10
534876.886541888
 20
9595990.42495292
 10
534826.616313848
 20
9596056.57525997
 10
534757.826000634
 20
9596114.78553105
 10
534474.714713961
 20
9596424.34696967
 10
534345.074128305
 20
9596667.7580976
 10
534217.523548298
 20
9596801.18871791
 10
534138.693190503
 20
9596903.23919168
 10
533889.99205923
 20
9597157.24037273
 10
533805.321674262
 20
9597249.85080313
 10
533715.361264026
 20
9597313.35109936
 10
533643.920939052
 20
9597387.43144378
 10
533561.900565098
 20
9597448.28172749
 10
533477.240179577
 20
9597525.0120846
 10
533344.119574451
 20
9597677.43279276
 10
533120.938556705
 20
9597841.01355552
 10
532736.526801316
 20
9598056.644564
 10
532648.706400263
 20
9598105.90479437
 10
532426.835388804
 20
9598284.37562574
 10
532318.354892216
 20
9598310.82575147
 10
532236.334517136
 20
9598342.57590078
 10
532164.90419097
 20
9598384.91609862
 10
532020.353529451
 20
9598426.66629616
 10
531935.713142459
 20
9598462.01646216
 10
531834.172677739
 20
9598490.74659813
 10
531686.002000037
 20
9598546.3068595
 10
531572.301480723
 20
9598611.56716452
 10
531471.691020538
 20
9598649.49734291
 10
531347.270452297
 20
9598723.12768689
 10
531275.420123752
 20
9598753.38782893
 10
531199.169775382
 20
9598795.0180236
 10
531033.689020515
 20
9598922.77861881
 10
530707.047529471
 20
9599146.90966412
 10
530670.307363393
 20
9599224.23002233
 10
530562.526870636
 20
9599275.29026151
 10
530503.316599258
 20
9599281.85029366
 10
530418.646211304
 20
9599295.08035741
 10
530336.625835751
 20
9599316.25045773
 10
530218.375294256
 20
9599345.25059534
 10
530108.694792162
 20
9599377.40074721
 10
529934.463994847
 20
9599437.96103226
 10
529844.503583743
 20
9599488.23126717
 10
529706.912953093
 20
9599504.10134467
 10
529540.232189809
 20
9599546.43154524
 10
529392.021511647
 20
9599602.4218083
 10
529278.5709926
 20
9599647.8020213
 10
529156.580434175
 20
9599686.66220443
 10
529069.600036527
 20
9599732.04241662
 10
528968.729575136
 20
9599776.62262551
 10
528854.959055119
 20
9599840.12292216
 10
528746.478559512
 20
9599908.91324307
 10
528603.597905611
 20
9599961.8334917
 10
528256.996318184
 20
9600051.79391733
 10
527950.084914909
 20
9600215.83468386
 10
527508.222896878
 20
9600538.62618741
 10
527148.391253984
 20
9600827.01752968
 10
526732.989356535
 20
9601139.22898346
 10
526600.698752962
 20
9601266.2295738
 10
526365.217677175
 20
9601443.5003992
 10
526060.956288924
 20
9601742.48178875
 10
525870.45542091
 20
9601977.96288187
 10
525539.723912089
 20
9602324.56449217
 10
525338.632995916
 20
9602586.50570787
 10
525246.032574363
 20
9602721.44633388
 10
525185.002296646
 20
9602815.50677015
 10
525121.682007782
 20
9602885.4870952
 10
524978.801358475
 20
9603142.12828498
 10
524920.591092193
 20
9603179.16845767
 10
524878.260899622
 20
9603247.96877674
 10
524798.890538882
 20
9603390.83943911
 10
524708.93012923
 20
9603523.13005285
 10
524642.779828206
 20
9603628.96054371
 10
524539.599357809
 20
9603761.26115785
 10
524452.278959475
 20
9603864.441637
 10
524360.668541237
 20
9603960.01208108
 10
524124.197461869
 20
9604218.98328413
 10
523949.576664326
 20
9604393.61409576
 10
523655.885323261
 20
9604705.82554637
 10
523460.344430694
 20
9604931.25659339
 10
523380.714067193
 20
9605023.31702096
 10
523314.573765271
 20
9605100.04737733
 10
523221.963342957
 20
9605227.04796678
 10
523079.092691529
 20
9605428.13890003
 10
522928.28200295
 20
9605602.75971108
 10
522878.011773843
 20
9605679.49006708
 10
522843.611617258
 20
9605740.34034929
 10
522811.861472285
 20
9605777.38052133
 10
522753.65120613
 20
9605830.30076742
 10
522473.189925821
 20
9606176.91237693
 10
522311.799189617
 20
9606404.45343302
 10
522184.418610108
 20
9606654.26459137
 10
522057.798031631
 20
9606798.67526222
 10
522020.757863186
 20
9606875.40561798
 10
521920.217404395
 20
9607015.63626891
 10
521848.777078994
 20
9607142.636858
 10
521769.39671697
 20
9607264.34742281
 10
521634.466102723
 20
9607523.63862534
 10
521510.105535398
 20
9607711.48949717
 10
521484.543448731
 20
9607761.10627875
 10
521475.735378908
 20
9607777.58980374
 10
521467.775342646
 20
9607792.17987141
 10
521412.215089557
 20
9607894.060344
 10
521343.424774869
 20
9607960.20065152
 10
521264.044411386
 20
9608021.06093485
 10
521221.714218344
 20
9608089.85125405
 10
521176.734013462
 20
9608174.51164675
 10
521115.883735117
 20
9608235.37192967
 10
521052.383443892
 20
9608264.4720657
 10
520954.482995593
 20
9608341.20242285
 10
520901.562754123
 20
9608423.22280351
 10
520851.292524316
 20
9608481.43307394
 10
520782.502208138
 20
9608481.43307541
 10
520737.522000381
 20
9608433.80285598
 10
520736.561994789
 20
9608378.51260016
 10
520760.502104706
 20
9608373.13257476
 10
520774.262167379
 20
9608346.20244985
 10
520781.442199756
 20
9608316.89231407
 10
520744.742030293
 20
9608280.19214504
 10
520696.341807211
 20
9608250.41200828
 10
520679.321729209
 20
9608261.04205783
 10
520650.611597257
 20
9608261.04205844
 10
520619.761455537
 20
9608264.2420739
 10
520589.981318216
 20
9608242.96197607
 10
520558.071171973
 20
9608262.6420678
 10
520538.92108345
 20
9608238.71195748
 10
520477.500801061
 20
9608233.92193661
 10
520424.840558746
 20
9608220.36187498
 10
520378.580346
 20
9608213.98184643
 10
520308.900024488
 20
9608153.35156736
 10
520234.8196838
 20
9608142.7615199
 10
520163.379354858
 20
9608113.66138674
 10
520090.589019778
 20
9608087.14126554
 10
520031.088745669
 20
9608055.45112014
 10
519974.918487497
 20
9608054.43111658
 10
519946.998359394
 20
9608064.80116513
 10
519919.868234545
 20
9608056.82112876
 10
519855.257937508
 20
9608052.04110797
 10
519799.417680699
 20
9608043.26106848
 10
519726.817346376
 20
9608010.47091824
 10
519613.046823293
 20
9607999.89087159
 10
519531.016446509
 20
9608010.4709222
 10
519409.315887044
 20
9608002.54088794
 10
519194.714900876
 20
9608007.36091451
 10
519134.144622622
 20
9608013.12094235
 10
519032.774156741
 20
9608012.95094355
 10
518992.093970172
 20
9608032.8910366
 10
518945.823757331
 20
9608023.32099323
 10
518893.373516291
 20
9608023.70099601
 10
518809.863132712
 20
9608035.09105033
 10
518737.272799085
 20
9608034.28104798
 10
518633.902324382
 20
9608053.63113949
 10
518528.251838862
 20
9608055.45114993
 10
518343.040988209
 20
9608084.55128809
 10
518022.889517322
 20
9608111.0114165
 10
517657.767840889
 20
9608200.97183944
 10
517398.476650606
 20
9608280.35221141
 10
517014.124885775
 20
9608376.7826644
 10
516902.444372933
 20
9608403.11278818
 10
516419.512156999
 20
9608624.30381997
 10
516128.470822886
 20
9608843.9148411
 10
515747.469075998
 20
9609119.07612072
 10
515480.2378507
 20
9609317.5170434
 10
515191.846528721
 20
9609560.93817456
 10
514837.304904185
 20
9609918.11983327
 10
514578.013716736
 20
9610232.98129465
 10
514458.953171248
 20
9610365.27190882
 10
514218.172067132
 20
9610574.29287998
 10
513929.78074442
 20
9610815.06399882
 10
513646.679446226
 20
9611079.64522779
 10
513273.607735349
 20
9611436.8368868
 10
512628.024773468
 20
9612005.68952952
 10
512426.943851106
 20
9612209.42047558
 10
512292.003231597
 20
9612307.31093065
 10
512175.592696911
 20
9612373.46123847
 10
512090.922308086
 20
9612429.02149684
 10
512035.362053178
 20
9612484.58175485
 10
511969.211749217
 20
9612513.69189049
 10
511887.19137166
 20
9612495.17180572
 10
511815.761042923
 20
9612484.58175754
 10
511720.500604621
 20
9612479.2917342
 10
511635.840214645
 20
9612436.96153916
 10
511530.009727879
 20
9612444.90157719
 10
511405.649155988
 20
9612463.42166444
 10
511334.218828087
 20
9612524.2719471
 10
511260.128487209
 20
9612521.63193573
 10
511138.417927314
 20
9612524.27194935
 10
510990.257245706
 20
9612524.27195104
 10
510913.526893067
 20
9612556.02209896
 10
510815.626442705
 20
9612558.67211233
 10
510656.875712258
 20
9612548.08206503
 10
510558.985260965
 20
9612460.77166173
 10
510455.794786509
 20
9612484.58177312
 10
510297.044056801
 20
9612542.79204441
 10
510130.3532911
 20
9612653.92256087
 10
510056.27295083
 20
9612706.83280669
 10
509963.672525619
 20
9612786.2131753
 10
509865.77207585
 20
9612849.71347042
 10
509754.651565768
 20
9612966.12401074
 10
509582.670776346
 20
9613153.98488262
 10
509344.539683493
 20
9613447.66624533
 10
509114.358627353
 20
9613770.46774291
 10
508701.606734347
 20
9614484.84105643
 10
508381.455266152
 20
9615101.32391587
 10
508167.144283777
 20
9615593.44619835
 10
508116.874053805
 20
9615768.07700813
 10
507984.583446825
 20
9616019.42817421
 10
507936.098663207
 20
9616123.17896297
 10
507540.913437008
 20
9616968.83115814
 10
507494.700379044
 20
9617045.57361262
 10
507446.54611606
 20
9617144.52797722
 10
507388.337666296
 20
9617278.9365794
 10
507326.954210188
 20
9617456.73693504
 10
507248.637386867
 20
9617653.05816105
 10
507177.601252379
 20
9617905.9100707
 10
507061.184352878
 20
9618120.22299933
 10
507040.017643878
 20
9618173.13977183
 10
507037.371805257
 20
9618204.88983533
 10
507019.316496199
 20
9618274.74850017
 10
506992.392548632
 20
9618289.55667133
 10
506987.456491577
 20
9618330.8400576
 10
506972.374089292
 20
9618341.90956189
 10
506967.263530901
 20
9618366.73865435
 10
506955.147754493
 20
9618392.31640454
 10
506931.538260257
 20
9618413.91108671
 10
506918.309067129
 20
9618440.36947296
 10
506851.490556358
 20
9618550.27023028
 10
506793.155336627
 20
9618605.46432279
 10
506763.538994301
 20
9618632.38827036
 10
506685.620203658
 20
9618779.28751963
 10
506664.081045606
 20
9618773.90273012
 10
506620.553997035
 20
9618841.21259904
 10
506576.578216012
 20
9618837.62273936
 10
506551.000465823
 20
9618851.98217806
 10
506476.06214509
 20
9618859.16189742
 10
506379.584666308
 20
9618930.06162601
 10
506351.763253823
 20
9618940.83120504
 10
506320.351981657
 20
9618978.97346409
 10
506226.662452806
 20
9619072.46297308
 10
506168.775965538
 20
9619106.11790755
 10
506110.889478265
 20
9619130.79819282
 10
506052.554258534
 20
9619163.55566235
 10
505999.603828314
 20
9619233.10919357
 10
505992.872841429
 20
9619284.26469394
 10
505963.256499105
 20
9619325.09934776
 10
505919.729450538
 20
9619393.75541405
 10
505880.240994102
 20
9619413.05090981
 10
505851.970849156
 20
9619476.3221866
 10
505823.700704212
 20
9619481.25824365
 10
505743.556717623
 20
9619596.60095209
 10
505676.965189964
 20
9619671.96953892
 10
505643.758987964
 20
9619738.83067538
 10
505609.206588591
 20
9619741.9718026
 10
505602.475601695
 20
9619769.34448262
 10
505566.128272476
 20
9619782.80645641
 10
505547.281509181
 20
9619818.2563207
 10
505505.549390454
 20
9619845.18026827
 10
505487.600092074
 20
9619882.87379487
 10
505444.521775966
 20
9619896.78450111
 10
505378.558104423
 20
9619960.50451036
 10
505362.403735885
 20
9619981.59493595
 10
505331.441196178
 20
9620012.55747565
 10
505255.967117331
 20
9620044.15686578
 10
505226.0422304
 20
9620064.50741959
 10
505026.534450247
 20
9620316.26905809
 10
504968.326000493
 20
9620456.49850522
 10
504888.950841742
 20
9620583.49875921
 10
504809.575682997
 20
9620694.62398147
 10
504751.367233244
 20
9620744.89491534
 10
504685.073641812
 20
9620801.78285597
 10
504635.293696192
 20
9620866.26529369
 10
504558.221013618
 20
9620953.91616672
 10
504513.811374413
 20
9621070.16953491
 10
504453.388423012
 20
9621148.438387
 10
504274.797307584
 20
9621379.77633513
 10
504259.241248989
 20
9621403.70873297
 10
504236.505471048
 20
9621465.93296735
 10
504213.769693103
 20
9621482.08733589
 10
504189.238985318
 20
9621528.75551167
 10
504146.758979151
 20
9621548.49973989
 10
504114.450242072
 20
9621586.79157642
 10
504082.739814937
 20
9621599.95439524
 10
504059.405727046
 20
9621625.08341297
 10
504017.524030829
 20
9621661.58031967
 10
503972.650784884
 20
9621688.50426724
 10
503904.443451045
 20
9621766.88287016
 10
503838.552907613
 20
9621877.31384685
 10
503790.927812364
 20
9621999.0224236
 10
503727.427685364
 20
9622065.16838922
 10
503663.927558362
 20
9622118.08516172
 10
503613.656624489
 20
9622171.00193423
 10
503536.247107468
 20
9622220.96888473
 10
503502.874708264
 20
9622261.8533977
 10
503420.510404859
 20
9622327.1064131
 10
503317.322698489
 20
9622422.3566036
 10
503203.551637607
 20
9622602.2736301
 10
502960.134484109
 20
9622922.42010373
 10
502914.064618279
 20
9622969.08827952
 10
502842.865734701
 20
9622998.40546687
 10
502700.683172038
 20
9623072.42949382
 10
502536.633248637
 20
9623192.8502706
 10
502526.200218957
 20
9623213.04323128
 10
502465.362661233
 20
9623282.25415673
 10
502378.049986609
 20
9623345.75428373
 10
502285.445634728
 20
9623417.19192661
 10
502184.903766981
 20
9623475.40037636
 10
502064.514127021
 20
9623531.68626053
 10
501957.639092878
 20
9623605.44846654
 10
501870.048970603
 20
9623665.90075736
 10
501840.532346603
 20
9623702.5971007
 10
501817.397695362
 20
9623716.95653942
 10
501806.548843603
 20
9623771.73430236
 10
501729.819523477
 20
9623827.29691348
 10
501629.277655728
 20
9623869.63033148
 10
501512.860756228
 20
9623917.25542673
 10
501416.928904872
 20
9623945.90981206
 10
501373.850588762
 20
9623955.4827712
 10
501270.143531471
 20
9623965.05573033
 10
501184.643395805
 20
9624002.2660173
 10
501119.612275261
 20
9624044.28067128
 10
501023.380610599
 20
9624115.69332361
 10
500951.772143696
 20
9624186.93516704
 10
500883.15116347
 20
9624287.67283423
 10
500793.192650226
 20
9624335.29792949
 10
500700.588298349
 20
9624390.86054061
 10
500629.150655474
 20
9624435.83979724
 10
500547.129658102
 20
9624470.23569936
 10
500496.858724223
 20
9624438.48563586
 10
500451.879467599
 20
9624422.61060411
 10
500398.962695097
 20
9624430.54811999
 10
500277.254118348
 20
9624454.36066761
 10
500189.941443724
 20
9624480.81905386
 10
500113.2121236
 20
9624507.27744011
 10
500043.599599273
 20
9624537.71166092
 10
499984.366914622
 20
9624559.25081897
 10
499918.552820568
 20
9624570.020398
 10
499864.106615488
 20
9624562.2423687
 10
499831.797878409
 20
9624548.48123995
 10
499782.482295469
 20
9624536.38166499
 10
499737.503038846
 20
9624491.40240836
 10
499651.663087897
 20
9624480.70910183
 10
499568.169366845
 20
9624507.27744011
 10
499488.567406079
 20
9624528.13870178
 10
499412.781479596
 20
9624545.68912687
 10
499327.422593973
 20
9624539.3071541
 10
499240.468215166
 20
9624541.70039389
 10
499175.917470612
 20
9624519.20581059
 10
499113.693236226
 20
9624421.88072605
 10
499078.592386064
 20
9624370.824944
 10
499042.693789307
 20
9624360.45423827
 10
498954.941663901
 20
9624353.27451892
 10
498871.178271477
 20
9624358.06099849
 10
498787.414879041
 20
9624349.28578595
 10
498737.954590178
 20
9624330.93761428
 10
498703.651486606
 20
9624301.42099027
 10
498673.337116009
 20
9624257.54492757
 10
498641.427252233
 20
9624245.57872865
 10
498568.832312122
 20
9624231.48520548
 10
498523.094840693
 20
9624193.19336894
 10
498486.930328409
 20
9624051.72630616
 10
498369.927494534
 20
9623878.34937961
 10
498253.988322782
 20
9623813.46598991
 10
498063.592802208
 20
9623775.17415337
 10
497731.957361087
 20
9623729.40088436
 10
497499.123562082
 20
9623766.44262511
 10
497279.518956211
 20
9623795.54684999
 10
497049.213687921
 20
9623671.8364232
 10
496982.801283922
 20
9623656.87867455
 10
496811.684639378
 20
9623668.24656352
 10
496745.272235381
 20
9623674.82797293
 10
496724.929697216
 20
9623659.27191433
 10
496678.859831382
 20
9623575.5085219
 10
496657.320673324
 20
9623570.12373238
 10
496627.405176032
 20
9623580.89331141
 10
496552.616432791
 20
9623571.32035228
 10
496517.914455918
 20
9623561.1490832
 10
496511.33304652
 20
9623544.99471466
 10
496562.787701872
 20
9623546.78964449
 10
496565.180941646
 20
9623489.35188968
 10
496565.18094165
 20
9623434.90568461
 10
496550.223192997
 20
9623385.24595909
 10
496487.101493704
 20
9623312.80059647
 10
496446.865149838
 20
9623273.51157668
 10
496406.927960945
 20
9623257.95551809
 10
496378.807393486
 20
9623229.83495064
 10
496341.712176835
 20
9623178.38029528
 10
496270.513293268
 20
9623114.36113107
 10
496250.17075511
 20
9623087.43718349
 10
496236.40962635
 20
9623052.13689668
 10
496146.064824509
 20
9622989.9126623
 10
496097.601718888
 20
9622985.12618274
 10
496075.696926985
 20
9622959.94730584
 10
495958.47803674
 20
9622939.00645774
 10
495620.632353926
 20
9622961.94167233
 10
495503.36360452
 20
9622995.4470293
 10
495491.995715547
 20
9622918.26504628
 10
495459.686978464
 20
9622882.96475946
 10
495392.676264519
 20
9622879.37489979
 10
495328.657100305
 20
9622871.59687049
 10
495287.373714032
 20
9622891.93940865
 10
495253.868357059
 20
9622879.37489979
 10
495107.282420305
 20
9622939.80420433
 10
495083.350022466
 20
9622880.57151968
 10
495035.485226786
 20
9622852.45095223
 10
494995.996770356
 20
9622878.17827989
 10
494909.241828196
 20
9622853.04926217
 10
494855.572166174
 20
9622857.84320704
 10
494808.305680446
 20
9622835.1074291
 10
494706.592989631
 20
9622803.99531191
 10
494585.136070605
 20
9622803.39700196
 10
494178.75065954
 20
9622943.0691349
 10
493832.824099187
 20
9623096.23648106
 10
493548.886494942
 20
9623221.39986835
 10
493504.304283476
 20
9623264.17819361
 10
493214.982233863
 20
9623344.00703638
 10
493069.027707679
 20
9623368.02810718
 10
492964.400189379
 20
9623391.28100944
 10
492829.310406531
 20
9623448.61344339
 10
492816.622127148
 20
9623454.32743537
 10
492652.580132397
 20
9623558.83806106
 10
492555.004960837
 20
9623657.21278808
 10
492360.904952309
 20
9623710.88001398
 10
492065.429697118
 20
9623859.06629497
 10
491757.653745809
 20
9624038.96400348
 10
491403.111370051
 20
9624345.88128398
 10
491162.380625724
 20
9624564.14180684
 10
490724.679223481
 20
9624906.02841214
 10
490455.901142297
 20
9625181.96628949
 10
490193.963118426
 20
9625480.94605411
 10
489857.941613044
 20
9625917.50942724
 10
488524.31285039
 20
9627925.94658689
 10
488013.374929083
 20
9628913.19363719
 10
487731.62265034
 20
9629597.71930769
 10
487476.343740072
 20
9630038.31179728
 10
487359.104536835
 20
9630119.62285759
 10
487222.955784693
 20
9630195.26105322
 10
487083.025122761
 20
9630236.86206082
 10
486986.586423332
 20
9630289.80879777
 10
486906.53254432
 20
9630251.12010968
 10
486846.906286881
 20
9630222.30374621
 10
486752.108016852
 20
9630225.51633147
 10
486540.321069077
 20
9630338.97362494
 10
486181.039639805
 20
9630352.21030917
 10
486030.603351266
 20
9630402.1642102
 10
485827.198810618
 20
9630425.26893588
 10
485783.127352084
 20
9630408.28512551
 10
485546.410372925
 20
9630317.06114304
 10
485471.931555713
 20
9630286.02688799
 10
485314.982299772
 20
9630257.66256463
 10
485046.466705262
 20
9630297.37261733
 10
484914.099862901
 20
9630267.11733908
 10
484832.788802593
 20
9630183.91532387
 10
484680.932933243
 20
9630168.39664359
 10
484516.999335814
 20
9630193.37009833
 10
484399.760132578
 20
9630242.5349255
 10
484165.281726108
 20
9630352.21030917
 10
484063.170161992
 20
9630412.72086568
 10
484031.023928846
 20
9630437.30327926
 10
483964.840507668
 20
9630469.4495124
 10
483894.875176705
 20
9630516.72338468
 10
483248.168604016
 20
9631059.42743837
 10
482626.044444907
 20
9631341.17971711
 10
482310.254978134
 20
9631656.96918388
 10
482145.096122879
 20
9631851.8705302
 10
481923.029437695
 20
9632101.34358325
 10
481833.773370395
 20
9632225.76541863
 10
481710.910147378
 20
9632331.07675265
 10
481688.1698438
 20
9632350.56844143
 10
481639.966843753
 20
9632455.37666965
 10
481547.362491883
 20
9632566.5018919
 10
481407.133044752
 20
9632733.18972528
 10
481261.611920382
 20
9632854.89830203
 10
480277.359951875
 20
9634225.44270978
 10
479236.26267919
 20
9636039.03390582
 10
479239.453665566
 20
9636081.58039086
 10
479180.952248627
 20
9636190.07392773
 10
479122.450831696
 20
9636203.90153537
 10
479133.087452954
 20
9636249.63900679
 10
479122.687201056
 20
9636394.29705594
 10
479087.58635089
 20
9636412.37931209
 10
479078.013391757
 20
9636370.89648917
 10
479037.59423096
 20
9636403.87001508
 10
479004.620705059
 20
9636535.76411872
 10
478970.583517017
 20
9636600.64750841
 10
478909.954775825
 20
9636622.98441307
 10
478882.299560545
 20
9636655.95793898
 10
478882.299560552
 20
9636725.09597717
 10
478827.456387837
 20
9636755.70715293
 10
478767.424050924
 20
9636908.04586287
 10
478703.604323358
 20
9636921.87347051
 10
478690.840377846
 20
9636964.41995556
 10
478598.301772868
 20
9637029.30334525
 10
478517.463451284
 20
9637135.66955786
 10
478388.760334025
 20
9637207.99858244
 10
478250.484257625
 20
9637370.73888773
 10
478156.881990525
 20
9637539.86116579
 10
478014.750138919
 20
9637758.04485941
 10
477994.540558523
 20
9637819.73726273
 10
477947.739424974
 20
9637869.72938266
 10
477932.848155209
 20
9637951.63136636
 10
477902.001953552
 20
9637985.6685544
 10
477866.760113499
 20
9637990.50240103
 10
477849.882509367
 20
9638032.46968796
 10
477857.328144255
 20
9638080.33448363
 10
477808.399686448
 20
9638150.53618396
 10
477730.75235124
 20
9638209.0376009
 10
477637.150084147
 20
9638303.70353012
 10
477497.810345622
 20
9638398.36945935
 10
477292.523555275
 20
9638658.96668025
 10
477246.786083851
 20
9638755.75993373
 10
477207.430585186
 20
9638795.1154324
 10
477181.902694155
 20
9638854.68051146
 10
477149.992830372
 20
9638839.7892417
 10
477106.382683204
 20
9638878.08107824
 10
477097.873386193
 20
9638932.32784667
 10
476956.406323417
 20
9639099.32280047
 10
476905.350541362
 20
9639118.46871874
 10
476798.984328746
 20
9639346.09241373
 10
476713.891358661
 20
9639476.92285525
 10
476640.498671957
 20
9639546.06089345
 10
476572.424295883
 20
9639667.31837583
 10
476416.065963343
 20
9639837.50431601
 10
476301.190453718
 20
9639920.46996185
 10
475392.822998
 20
9641055.39745043
 10
475330.06693256
 20
9641092.62562485
 10
475146.053384738
 20
9641289.40311818
 10
475094.997602684
 20
9641313.86734708
 10
475067.3423874
 20
9641365.98679126
 10
475038.623509995
 20
9641393.64200654
 10
475018.413929603
 20
9641431.93384308
 10
474988.63139007
 20
9641494.68990852
 10
474879.074191077
 20
9641560.63696034
 10
474836.527706035
 20
9641628.71133642
 10
474699.84712282
 20
9641786.0668522
 10
474637.622888445
 20
9641814.18741966
 10
474568.631268826
 20
9641889.06282152
 10
474511.223085242
 20
9641938.36804299
 10
474490.520477431
 20
9641956.14853381
 10
474435.253225899
 20
9642011.10989653
 10
474419.50839865
 20
9642026.7675664
 10
474322.313546931
 20
9642085.82013512
 10
474234.361984873
 20
9642124.71028161
 10
474121.879715035
 20
9642116.93225231
 10
473927.347251843
 20
9642184.12529382
 10
473694.51345284
 20
9642311.12554782
 10
473564.867360212
 20
9642387.85486795
 10
473310.866852215
 20
9642591.58444208
 10
473144.179018838
 20
9642729.16805057
 10
472940.449444714
 20
9642927.60594745
 10
472718.199000214
 20
9643144.5647147
 10
472232.882257906
 20
9643637.76965603
 10
472208.152113475
 20
9643735.89248717
 10
472050.996034335
 20
9643777.37531009
 10
471944.189472442
 20
9643854.29664115
 10
471736.683876064
 20
9643980.00294512
 10
471447.101862226
 20
9644138.75451744
 10
471218.946336171
 20
9644240.06833496
 10
471086.764693758
 20
9644290.15435295
 10
471010.734474979
 20
9644305.48355571
 10
470915.00488363
 20
9644319.84299441
 10
470792.949654656
 20
9644328.61820696
 10
470717.978476722
 20
9644320.82444432
 10
470650.95076082
 20
9644325.42722057
 10
470522.672694426
 20
9644322.44049133
 10
470497.395935437
 20
9644323.52728543
 10
470431.843468063
 20
9644325.4283694
 10
470366.290995346
 20
9644327.32941568
 10
470318.290430869
 20
9644327.02271377
 10
470281.59408752
 20
9644319.04524782
 10
470231.336052057
 20
9644303.09031593
 10
470182.673509788
 20
9644284.74214425
 10
470129.860775012
 20
9644272.45876004
 10
470086.943918436
 20
9644252.83228047
 10
470033.494896596
 20
9644234.48410879
 10
469976.86556849
 20
9644212.13751427
 10
469958.360724697
 20
9644204.66813845
 10
469935.081696098
 20
9644195.271684
 10
469834.209035542
 20
9644154.55490252
 10
469702.430059844
 20
9644108.44014685
 10
469605.902721889
 20
9644086.10324219
 10
469537.317047368
 20
9644081.58547721
 10
469367.649218624
 20
9644096.88501219
 10
469277.03024847
 20
9644108.36943587
 10
469186.411253787
 20
9644119.85378866
 10
469157.487638652
 20
9644133.27303491
 10
469128.564016163
 20
9644146.69227433
 10
469070.716749145
 20
9644173.53073273
 10
468948.116335392
 20
9644200.8014748
 10
468831.822609599
 20
9644254.69368919
 10
468393.593813632
 20
9644423.4614132
 10
468012.093664397
 20
9644525.57297731
 10
467481.680817502
 20
9644622.01167675
 10
467083.16207424
 20
9644816.30729179
 10
466883.193594525
 20
9644973.72928646
 10
466615.150738746
 20
9645183.62527934
 10
466096.083621188
 20
9645529.67002438
 10
465908.879086994
 20
9645525.41537587
 10
465767.057470173
 20
9645545.27040223
 10
465698.436472403
 20
9645535.59668396
 10
465653.524688654
 20
9645516.87667683
 10
465603.388077635
 20
9645504.390558
 10
465543.845749521
 20
9645506.4510382
 10
465474.896102995
 20
9645528.25434408
 10
465413.588250896
 20
9645547.24512432
 10
465394.454968689
 20
9645553.17186067
 10
465304.608979965
 20
9645589.5181857
 10
465262.297760179
 20
9645606.65287271
 10
465219.986526352
 20
9645623.78754518
 10
465156.565379999
 20
9645658.10620987
 10
465137.450019815
 20
9645668.44996752
 10
465116.408935078
 20
9645683.96367509
 10
464609.793076942
 20
9646033.13676408
 10
464317.640546295
 20
9646136.66654436
 10
464172.982497147
 20
9646217.50486594
 10
463872.320669493
 20
9646465.69269538
 10
463303.615986051
 20
9646815.99208892
 10
463024.227400925
 20
9647092.54424171
 10
462737.747734953
 20
9647400.2971502
 10
462388.866557587
 20
9647885.32707972
 10
462191.73451021
 20
9648203.00750139
 10
462066.458748683
 20
9648453.55902443
 10
461760.533603724
 20
9648710.01776221
 10
461526.170392702
 20
9648745.9843936
 10
461473.960766488
 20
9648795.87359199
 10
461305.729748677
 20
9648848.08321821
 10
461174.625576177
 20
9648884.0498496
 10
461131.697661285
 20
9648926.97776449
 10
461008.714986194
 20
9649000.07124119
 10
460905.455947676
 20
9649032.55723084
 10
460740.12546466
 20
9649133.49584153
 10
460473.856370953
 20
9649194.18953201
 10
460430.130808995
 20
9649208.54717922
 10
460389.015728348
 20
9649203.32621659
 10
460325.711556561
 20
9649226.16792806
 10
460142.977864802
 20
9649229.4310297
 10
460102.515404477
 20
9649235.30461265
 10
460071.189628754
 20
9649252.27274117
 10
459957.633691724
 20
9649265.97776805
 10
459904.771445182
 20
9649275.76707297
 10
459875.403530435
 20
9649265.32514772
 10
459806.772328097
 20
9649253.40492124
 10
459748.795186859
 20
9649253.57798182
 10
459665.259784914
 20
9649258.14632412
 10
459603.913474111
 20
9649259.45156477
 10
459543.872403965
 20
9649251.62012084
 10
459496.883740366
 20
9649246.39915822
 10
459456.421280043
 20
9649246.39915822
 10
459395.727589566
 20
9649230.08365003
 10
459320.023631552
 20
9649195.49477266
 10
459206.467694533
 20
9649122.40129595
 10
459116.406089305
 20
9649039.51851434
 10
459064.849083417
 20
9648952.06739042
 10
458988.492505073
 20
9648871.14246979
 10
458919.967370666
 20
9648816.97498259
 10
458867.757744453
 20
9648791.5227898
 10
458828.600524786
 20
9648763.46011571
 10
458777.043518898
 20
9648730.176479
 10
458711.781486126
 20
9648698.19808295
 10
458594.36111186
 20
9648648.65916188
 10
458559.602913983
 20
9648610.5222141
 10
458494.376736084
 20
9648579.59308423
 10
458146.166103286
 20
9648534.19843455
 10
458108.392440382
 20
9648535.20029975
 10
458032.845108134
 20
9648537.20399307
 10
457999.690527678
 20
9648512.37319048
 10
457903.755339507
 20
9648477.78431311
 10
457860.68239788
 20
9648451.02687968
 10
457828.70400182
 20
9648424.92206657
 10
457799.33608707
 20
9648406.64869739
 10
457786.936300847
 20
9648379.89126395
 10
457779.104856917
 20
9648343.99714593
 10
457814.578370449
 20
9648271.21886852
 10
457897.927123754
 20
9648201.42813968
 10
457897.927123755
 20
9648201.42813968
 10
457863.317555878
 20
9648136.53412226
 10
457814.983284437
 20
9648062.1859675
 10
457577.566984378
 20
9648107.42989739
 10
457421.876051527
 20
9648199.84122803
 10
457134.209498879
 20
9648396.55438535
 10
456854.623114471
 20
9648597.34510344
 10
456578.583387634
 20
9648624.09650711
 10
456351.408560471
 20
9648719.60497747
 10
455894.262944503
 20
9648859.58367383
 10
455596.586729459
 20
9649068.66577726
 10
455385.732743803
 20
9649268.88846952
 10
455274.245774322
 20
9649362.80720585
 10
455102.205434874
 20
9649589.82760523
 10
454716.368980067
 20
9649975.88287946
 10
454340.20391087
 20
9650481.47522186
 10
454129.349925214
 20
9650671.06662072
 10
453395.639521739
 20
9651153.51823262
 10
453176.034915864
 20
9651288.45600249
 10
452993.472050738
 20
9651314.91438874
 10
452702.217102814
 20
9651273.44098757
 10
452558.694641992
 20
9651320.28512409
 10
452000.712036612
 20
9651654.72752923
 10
451760.511251483
 20
9651767.35279362
 10
451670.809713468
 20
9651864.03111792
 10
451515.444384057
 20
9651995.76840754
 10
451323.0844192
 20
9652083.47657805
 10
451184.047035278
 20
9652077.99481739
 10
451105.807360455
 20
9652072.51305673
 10
451001.155566102
 20
9652095.43678312
 10
450894.510404241
 20
9652136.3008171
 10
450819.759122558
 20
9652186.13500489
 10
450734.044319566
 20
9652218.02888507
 10
450649.824542205
 20
9652230.98577389
 10
450535.704252174
 20
9652211.05209878
 10
450415.824567167
 20
9652205.34029919
 10
450362.003644358
 20
9652197.86517102
 10
450303.199302766
 20
9652202.35024792
 10
450237.418174889
 20
9652198.3635129
 10
450136.753115561
 20
9652209.32703421
 10
450023.131167412
 20
9652270.12474331
 10
449903.529116722
 20
9652305.50701664
 10
449771.966860966
 20
9652316.96887983
 10
449703.195681818
 20
9652305.00867476
 10
449481.931888047
 20
9652263.14795702
 10
449390.742610111
 20
9652306.86341977
 10
449275.618350612
 20
9652336.90255494
 10
449198.873701419
 20
9652366.30472573
 10
449127.112471006
 20
9652381.75332395
 10
449063.324710644
 20
9652393.71352901
 10
448956.679548777
 20
9652409.66046911
 10
448861.994591984
 20
9652430.59082798
 10
448748.372643827
 20
9652454.51123812
 10
448666.681479502
 20
9652477.84100042
 10
448577.475911049
 20
9652508.2293641
 10
448484.331320681
 20
9652557.9548492
 10
448392.556543035
 20
9652617.70897456
 10
447851.541834737
 20
9652939.01028604
 10
447560.953148621
 20
9653142.18611535
 10
447218.832220912
 20
9653468.80307354
 10
446820.15871862
 20
9654017.64359502
 10
446541.087267019
 20
9654401.69906889
 10
446302.146168079
 20
9654646.02521763
 10
446040.208144202
 20
9655072.00523626
 10
445899.97869708
 20
9655225.46387651
 10
445631.119585584
 20
9655327.61095761
 10
445267.623265699
 20
9655434.48512788
 10
445074.477046073
 20
9655529.73531839
 10
444794.018151822
 20
9655693.77731314
 10
444553.246836946
 20
9655836.65259889
 10
444214.579492943
 20
9656056.25720477
 10
443947.349791819
 20
9656119.75733177
 10
443643.078349941
 20
9656209.71584501
 10
443322.931876315
 20
9656397.5703874
 10
442915.472728062
 20
9656683.32095889
 10
442588.903947625
 20
9656884.10607651
 10
442224.908846935
 20
9656953.19649864
 10
441907.408211934
 20
9657122.53017065
 10
441396.87017577
 20
9657543.83689438
 10
441073.96904505
 20
9657961.26101478
 10
440761.760087301
 20
9658307.86587465
 10
440216.717330548
 20
9658620.0748324
 10
439814.431685374
 20
9658938.45586813
 10
439421.073829779
 20
9659293.69057007
 10
438898.562370833
 20
9659644.27408115
 10
438831.810437206
 20
9659631.69285084
 10
438652.402896299
 20
9659656.29755589
 10
438443.239466249
 20
9659730.79966662
 10
438139.594930222
 20
9659945.22386255
 10
438061.853597271
 20
9659948.21391382
 10
437983.115580571
 20
9659980.107794
 10
437803.712504538
 20
9659964.16085391
 10
437632.282898549
 20
9659970.14095644
 10
437535.089080327
 20
9659998.39562012
 10
437455.354379869
 20
9660006.36909017
 10
437316.815337821
 20
9659969.4917912
 10
437207.180124693
 20
9659943.57801356
 10
437136.415578035
 20
9659939.59127853
 10
437068.641082646
 20
9659956.53490238
 10
436988.794208032
 20
9659987.97340154
 10
436903.12376914
 20
9660022.26733655
 10
436361.730453906
 20
9660413.95342016
 10
436176.521750153
 20
9660503.91193341
 10
435983.375530529
 20
9660419.24509741
 10
435835.208567526
 20
9660353.09913178
 10
435636.770670651
 20
9660297.53652066
 10
435475.374514527
 20
9660286.95316616
 10
435284.874133527
 20
9660339.86993866
 10
435083.790398024
 20
9660390.14087253
 10
434869.4774694
 20
9660474.80770854
 10
434641.935347648
 20
9660556.82870591
 10
434202.726135893
 20
9660715.57902341
 10
433959.308982395
 20
9660874.32934091
 10
433723.829344769
 20
9661078.05891504
 10
433567.724865887
 20
9661255.33010292
 10
433319.016035138
 20
9661588.70576967
 10
433186.724103888
 20
9661800.37285965
 10
433025.327947764
 20
9662051.72752903
 10
432699.889796889
 20
9662520.04096566
 10
432557.014511133
 20
9662784.62482816
 10
432287.138971383
 20
9663223.83403992
 10
432199.826296758
 20
9663461.95951616
 10
432088.701074511
 20
9663697.43915379
 10
431861.158952757
 20
9663996.41891841
 10
431739.450376007
 20
9664245.12774916
 10
431660.075217256
 20
9664515.00328892
 10
431525.137447381
 20
9664911.87908267
 10
431403.428870628
 20
9665094.4419478
 10
431341.91207812
 20
9665294.24610316
 10
431122.96997638
 20
9665515.13028917
 10
430760.490084751
 20
9665689.75563842
 10
430265.718261873
 20
9665919.9435988
 10
430064.634526373
 20
9666004.6104348
 10
429890.009177125
 20
9666017.83962792
 10
429707.446311997
 20
9666097.21478667
 10
429487.841706122
 20
9666152.7773978
 10
429217.966166372
 20
9666290.3610063
 10
429056.570010246
 20
9666300.9443608
 10
428754.94440699
 20
9666279.7776518
 10
428495.652221742
 20
9666197.75665443
 10
428437.235779936
 20
9666044.371315
 10
428331.610226989
 20
9665885.54769668
 10
428215.193327488
 20
9665798.23502205
 10
428096.130589367
 20
9665740.02657229
 10
427979.713689864
 20
9665716.21402467
 10
427918.859401487
 20
9665708.2765088
 10
427791.859147487
 20
9665660.65141354
 10
427580.192057486
 20
9665676.5264453
 10
427339.420742611
 20
9665705.63067017
 10
427058.961848359
 20
9665787.65166755
 10
426762.627922358
 20
9665935.81863055
 10
426593.294250356
 20
9666052.23553005
 10
426265.210260855
 20
9666356.50697193
 10
426061.919479351
 20
9666577.5036626
 10
425508.500414104
 20
9667245.50874993
 10
425259.79158335
 20
9667589.46777119
 10
425087.812072726
 20
9667843.46827919
 10
424892.020014472
 20
9668163.61475281
 10
424794.123985346
 20
9668245.63575019
 10
424717.391558239
 20
9668263.62818137
 10
424527.283360387
 20
9668257.05745143
 10
424394.982820365
 20
9668313.75768286
 10
424132.916114317
 20
9668458.99561647
 10
423945.90792606
 20
9668573.58260911
 10
423608.167867311
 20
9668756.61542206
 10
423524.446431827
 20
9668765.91780377
 10
423329.096415705
 20
9668763.25998042
 10
423164.497191955
 20
9668761.96125851
 10
423096.0743652
 20
9668721.44572964
 10
422871.867742763
 20
9668571.23224349
 10
422695.454717999
 20
9668427.29449776
 10
422606.594219573
 20
9668393.36174013
 10
422490.177320075
 20
9668351.02832213
 10
422409.741571046
 20
9668320.81936623
 10
422151.873231501
 20
9668264.24204692
 10
421976.456890493
 20
9668236.77787232
 10
421746.112200281
 20
9668240.32163678
 10
421528.170685693
 20
9668270.44363473
 10
421288.966584318
 20
9668343.09080626
 10
421164.93482805
 20
9668382.07221538
 10
421085.043730506
 20
9668437.97139363
 10
420984.568679032
 20
9668455.28531041
 10
420780.802899014
 20
9668542.97325287
 10
420734.935661924
 20
9668548.01230359
 10
420689.068416945
 20
9668553.05133794
 10
420484.052865197
 20
9668523.44880581
 10
420275.031613826
 20
9668534.03216031
 10
420095.114587323
 20
9668573.71973969
 10
419950.172240061
 20
9668687.04982751
 10
419919.732380625
 20
9668701.09899341
 10
419906.948399999
 20
9668706.9993
 10
419608.280299999
 20
9668989.1164
 10
419380.738199999
 20
9669057.9082
 10
419059.1572
 20
9669166.9849
 10
418594.924100001
 20
9669425.6798
 10
418302.5635
 20
9669654.2526
 10
418086.393899999
 20
9669861.5628
 10
417666.2347
 20
9670235.3064
 10
417576.276199999
 20
9670359.6608
 10
417279.942299999
 20
9670566.0362
 10
416956.516199999
 20
9670753.5563
 10
416697.8578
 20
9670888.8285
 10
416449.7277
 20
9671137.0964
 10
416272.4566
 20
9671343.4718
 10
415960.2476
 20
9671631.8682
 10
415777.6847
 20
9671782.681
 10
415632.163599999
 20
9671867.3478
 10
415407.2673
 20
9672015.5148
 10
414986.579
 20
9672346.2446
 10
414764.328500001
 20
9672520.87
 10
414505.0364
 20
9672735.1829
 10
414124.035600001
 20
9672986.5376
 10
413740.389
 20
9673232.6006
 10
413335.0165
 20
9673397.8208
 10
413089.512699999
 20
9673507.7678
 10
412634.428500001
 20
9673772.3516
 10
412401.594699999
 20
9673819.9767
 10
412139.656599999
 20
9673793.5183
 10
411978.2605
 20
9673692.9765
 10
411906.822799999
 20
9673605.6638
 10
411793.0518
 20
9673587.1429
 10
411681.926499999
 20
9673669.1639
 10
411591.968000001
 20
9673835.8518
 10
411319.446699999
 20
9674306.811
 10
411094.550399999
 20
9674513.1865
 10
410798.2164
 20
9674603.145
 10
410480.7158
 20
9674711.6244
 10
410036.214900001
 20
9675010.6041
 10
409456.7763
 20
9675468.3342
 10
409022.858699999
 20
9675590.0428
 10
408595.442999999
 20
9675891.9893
 10
408267.0541
 20
9676142.4153
 10
407813.367999999
 20
9676486.57
 10
407560.873399999
 20
9676710.7149
 10
407459.8761
 20
9676817.0278
 10
407107.271600001
 20
9677164.3168
 10
406905.277000001
 20
9677359.2238
 10
406392.579899999
 20
9677796.7918
 10
405916.6442
 20
9678180.3188
 10
405482.726599999
 20
9678532.2153
 10
405334.559700001
 20
9678643.3405
 10
405161.7124
 20
9678751.2457
 10
405055.3995
 20
9678841.021
 10
404211.129199999
 20
9679434.0109
 10
403834.3692
 20
9679630.2384
 10
403498.347699999
 20
9679762.5303
 10
403294.618100001
 20
9679823.3846
 10
403188.7846
 20
9679804.8637
 10
403122.638599999
 20
9679744.0094
 10
403032.6801
 20
9679733.4261
 10
402933.1938
 20
9679845.8645
 10
402858.0547
 20
9679974.1974
 10
402671.3134
 20
9680107.013
 10
402447.9497
 20
9680196.4478
 10
402283.907800001
 20
9680254.6563
 10
402159.553299999
 20
9680265.2396
 10
402090.761499999
 20
9680214.9687
 10
401995.511300001
 20
9680201.7395
 10
401881.7403
 20
9680299.6355
 10
401756.765
 20
9680508.5736
 10
401596.114400001
 20
9680740.0996
 10
401449.6388
 20
9680962.1755
 10
401229.6301
 20
9681216.7359
 10
400861.189300001
 20
9681472.8836
 10
400379.126599999
 20
9681768.2342
 10
399971.692100001
 20
9681960.2866
 10
399107.6627
 20
9682389.7342
 10
398354.6832
 20
9682715.1896
 10
397890.379599999
 20
9682915.8725
 10
397797.688
 20
9682888.962
 10
397651.1755
 20
9682829.6594
 10
397487.719299999
 20
9682921.8526
 10
397420.240199999
 20
9682915.3926
 10
397296.3561
 20
9682872.0184
 10
397252.501999999
 20
9682828.1643
 10
397225.5915
 20
9682774.3434
 10
397177.439199999
 20
9682670.3069
 10
397166.8558
 20
9682551.2442
 10
397219.7726
 20
9682508.9108
 10
397344.127
 20
9682511.5566
 10
397524.0441
 20
9682530.0775
 10
397717.190300001
 20
9682487.7441
 10
397897.467100001
 20
9682386.1905
 10
398287.2812
 20
9682290.5088
 10
398565.466700001
 20
9682271.0181
 10
398859.599200001
 20
9682212.546
 10
399042.103000001
 20
9682083.1986
 10
399130.6971
 20
9681911.326
 10
399267.722699999
 20
9681781.388
 10
399340.9605
 20
9681682.1626
 10
399721.324599999
 20
9681564.0371
 10
400361.564700001
 20
9681301.7985
 10
400770.2788
 20
9680876.5468
 10
400963.634299999
 20
9680773.2406
 10
401262.613999999
 20
9680659.4696
 10
401553.6563
 20
9680622.4278
 10
401635.677299999
 20
9680519.2401
 10
401635.677299999
 20
9680421.3441
 10
401458.4061
 20
9680402.8232
 10
401233.921400001
 20
9680467.242
 10
400922.070099999
 20
9680545.2048
 10
400730.7068
 20
9680685.1835
 10
400544.659199999
 20
9680862.3717
 10
400415.3118
 20
9681050.1913
 10
400314.427899999
 20
9681134.8574
 10
398971.227699999
 20
9681617.1936
 10
398813.5302
 20
9681649.0875
 10
398713.6957
 20
9681741.17
 10
398543.2628
 20
9681784.5257
 10
398483.461799999
 20
9681831.619
 10
398387.780100001
 20
9681792.0008
 10
398362.115499999
 20
9681681.1198
 10
398305.3046
 20
9681743.2464
 10
398025.423300001
 20
9681878.8992
 10
397972.163
 20
9681947.2966
 10
397878.537
 20
9681980.9347
 10
397742.8635
 20
9681993.549
 10
397701.501100001
 20
9682042.7291
 10
397618.5272
 20
9682059.9219
 10
397507.5215
 20
9682120.4704
 10
397375.3363
 20
9682204.9394
 10
397202.91
 20
9682264.7404
 10
397087.8484
 20
9682283.8989
 10
397041.7795
 20
9682335.2835
 10
396926.6072
 20
9682395.5275
 10
396643.4613
 20
9682503.3671
 10
396538.762799999
 20
9682548.1478
 10
396464.7706
 20
9682585.0894
 10
396239.021700001
 20
9682618.7275
 10
396159.037800001
 20
9682645.638
 10
396064.8512
 20
9682760.0074
 10
395974.4021
 20
9682835.5062
 10
395904.468199999
 20
9682891.0714
 10
395829.2185
 20
9682919.3938
 10
395678.221000001
 20
9682963.497
 10
395578.054199999
 20
9683006.8528
 10
395497.322899999
 20
9683058.4312
 10
395430.046700001
 20
9683084.5941
 10
395356.790400001
 20
9683124.2123
 10
395257.745
 20
9683135.7987
 10
395199.812799999
 20
9683177.2857
 10
395141.922000001
 20
9683241.7379
 10
395054.213900001
 20
9683312.6132
 10
394981.0908
 20
9683348.5264
 10
394784.2974
 20
9683467.9903
 10
394652.735099998
 20
9683563.6719
 10
394525.159600001
 20
9683666.3303
 10
394419.262
 20
9683767.2446
 10
394339.776399999
 20
9683743.075
 10
394240.108099999
 20
9683819.8196
 10
393911.202399998
 20
9684011.1829
 10
393822.497599999
 20
9684056.0337
 10
393746.8327
 20
9684111.7649
 10
393554.7219
 20
9684235.1045
 10
393508.3761
 20
9684193.9913
 10
393287.859800001
 20
9684277.7128
 10
393115.1843
 20
9684404.7899
 10
392665.9291
 20
9684808.4469
 10
392593.660300001
 20
9684848.9325
 10
392575.719999998
 20
9684779.1647
 10
392089.818199999
 20
9685110.3959
 10
391071.5766
 20
9685533.2851
 10
390241.9068
 20
9685825.5146
 10
389971.805499998
 20
9685927.1763
 10
389656.853399999
 20
9686024.8513
 10
389452.533300001
 20
9686094.6192
 10
389309.010799999
 20
9686096.6126
 10
389192.398799998
 20
9686109.5695
 10
389119.640899999
 20
9686063.722
 10
389102.697299999
 20
9685991.9608
 10
389247.216399999
 20
9686023.8547
 10
389316.984299999
 20
9685995.9475
 10
389397.7157
 20
9686027.8414
 10
389503.3641
 20
9686002.9243
 10
389567.1519
 20
9685953.0901
 10
389673.797099999
 20
9685897.2758
 10
389834.7615
 20
9685798.1058
 10
389901.040999999
 20
9685753.7534
 10
389928.449799999
 20
9685682.9888
 10
389984.762400001
 20
9685672.0253
 10
390326.624899999
 20
9685426.8411
 10
390537.921900001
 20
9685188.6337
 10
390606.693099999
 20
9685154.7464
 10
390584.765999999
 20
9685091.9553
 10
390521.974899999
 20
9685084.9786
 10
390470.1474
 20
9685109.8957
 10
390336.591799998
 20
9685220.5275
 10
390139.2484
 20
9685317.2059
 10
390017.652999998
 20
9685346.1097
 10
389966.822100003
 20
9685399.9306
 10
389820.309600001
 20
9685461.725
 10
389715.7439
 20
9685485.7439
 10
389564.5433
 20
9685517.244
 10
389157.514899999
 20
9685562.0578
 10
389093.727099999
 20
9685523.5194
 10
388950.204699999
 20
9685543.4531
 10
388863.8254
 20
9685579.3337
 10
388760.170299999
 20
9685624.5167
 10
388701.6982
 20
9685605.9119
 10
388590.443699999
 20
9685535.6972
 10
388431.188499998
 20
9685585.8389
 10
388319.867499999
 20
9685607.9139
 10
388221.3184
 20
9685652.8523
 10
388159.350799998
 20
9685657.9506
 10
388084.599499998
 20
9685651.2229
 10
387859.598099999
 20
9685664.6782
 10
387777.371699999
 20
9685686.356
 10
387707.1055
 20
9685703.5488
 10
387569.563199999
 20
9685742.4195
 10
387494.064399998
 20
9685761.8548
 10
387404.3628
 20
9685774.9363
 10
386866.901100003
 20
9685918.085
 10
386313.741600001
 20
9686084.7804
 10
386015.093700002
 20
9686146.1721
 10
385857.593
 20
9686158.7722
 10
385734.022700002
 20
9686053.5236
 10
385727.525799999
 20
9685975.9668
 10
385946.547099999
 20
9685834.6869
 10
386051.198899998
 20
9685786.8461
 10
386272.674899998
 20
9685796.0101
 10
386419.722699999
 20
9685763.6732
 10
386558.538599999
 20
9685701.5097
 10
386549.105399998
 20
9685609.8336
 10
386399.955099998
 20
9685634.7688
 10
386297.628899999
 20
9685636.0977
 10
386160.751
 20
9685642.7422
 10
385813.240600002
 20
9685778.9557
 10
385738.157099999
 20
9685851.3814
 10
385615.897199998
 20
9685911.1824
 10
385366.061799999
 20
9686005.5351
 10
385284.9982
 20
9686028.1266
 10
385152.106999999
 20
9686054.7049
 10
385053.767599999
 20
9686032.1134
 10
384963.401600001
 20
9685994.9038
 10
384970.046199998
 20
9685907.1957
 10
384916.889700002
 20
9685876.6307
 10
384825.194799999
 20
9685963.01
 10
384744.1312
 20
9685980.2858
 10
384659.0808
 20
9685885.9331
 10
384540.8077
 20
9685824.8031
 10
384466.388599999
 20
9685836.7634
 10
384111.569199999
 20
9686037.429
 10
384081.004200002
 20
9685963.01
 10
384005.2298
 20
9685919.818
 10
384000.691199999
 20
9686050.0183
 10
383969.295699999
 20
9686145.8868
 10
383858.570299999
 20
9686189.6163
 10
383830.818899999
 20
9686244.5585
 10
383785.407499998
 20
9686278.7572
 10
383696.266599999
 20
9686300.622
 10
383553.304799999
 20
9686305.6677
 10
383437.253399998
 20
9686286.0455
 10
383343.0668
 20
9686330.8962
 10
383165.345599998
 20
9686431.2498
 10
382978.093699999
 20
9686519.2695
 10
382821.116000001
 20
9686579.2574
 10
382701.1402
 20
9686594.9551
 10
382586.770700001
 20
9686615.138
 10
382394.473099998
 20
9686663.3526
 10
382210.0243
 20
9686671.2014
 10
382071.5475
 20
9686597.7583
 10
381903.076799999
 20
9686520.3907
 10
381940.919700001
 20
9686466.0092
 10
381968.2039
 20
9686396.1167
 10
381995.114300002
 20
9686247.3617
 10
381934.5658
 20
9686198.0258
 10
381869.532199999
 20
9686322.8605
 10
381794.0334
 20
9686377.8027
 10
381480.493300001
 20
9686470.2866
 10
381315.625199999
 20
9686431.9973
 10
381204.0797
 20
9686394.5386
 10
381133.564299999
 20
9686397.4872
 10
381087.799900001
 20
9686441.715
 10
380891.6193
 20
9686483.7418
 10
380757.066999998
 20
9686454.5888
 10
380671.850499999
 20
9686431.7897
 10
380694.2759
 20
9686334.2393
 10
380574.812300001
 20
9686175.4343
 10
380574.812300001
 20
9686059.3761
 10
380433.061700001
 20
9686051.4026
 10
380301.942399999
 20
9685943.3178
 10
380215.153
 20
9685934.8357
 10
380042.3945
 20
9686224.5384
 10
380099.537699999
 20
9686255.1034
 10
380132.095999999
 20
9686320.8845
 10
379855.017900001
 20
9686633.8432
 10
379459.002299999
 20
9686882.3497
 10
379218.469299999
 20
9686976.7025
 10
378195.343900002
 20
9687313.5608
 10
377711.483399999
 20
9687455.1107
 10
377355.335100001
 20
9687444.4794
 10
376742.7068
 20
9687517.5695
 10
376290.876800002
 20
9687529.5297
 10
376009.147600002
 20
9687538.8321
 10
375881.571999999
 20
9687471.0576
 10
375762.021399999
 20
9687401.0664
 10
375659.643799998
 20
9687368.7314
 10
375638.3812
 20
9687432.5192
 10
375625.0921
 20
9687528.2008
 10
375478.4071
 20
9687707.13570001
 10
374821.543499998
 20
9687850.6834
 10
374763.0714
 20
9687798.8558
 10
374577.023699998
 20
9687814.8027
 10
374392.305
 20
9687749.6861
 10
374270.0452
 20
9687646.031
 10
373969.711099999
 20
9687642.0442
 10
373753.098499999
 20
9687562.3095
 10
373404.9237
 20
9687526.4289
 10
373305.255299999
 20
9687490.5483
 10
373286.6505
 20
9687375.5974
 10
373463.395799999
 20
9687352.3415
 10
373714.560100002
 20
9687501.1796
 10
373911.238999998
 20
9687498.5218
 10
374014.8941
 20
9687358.986
 10
374086.655299999
 20
9687188.8853
 10
373945.790699999
 20
9687127.7554
 10
373863.3982
 20
9687195.5299
 10
373709.244400001
 20
9687223.4371
 10
373653.3809
 20
9686940.1082
 10
373743.746900001
 20
9686778.8669
 10
373807.534699999
 20
9686697.3603
 10
373755.928600002
 20
9686598.5225
 10
373676.6922
 20
9686603.7551
 10
373569.424200001
 20
9686663.1823
 10
373510.744399999
 20
9686455.7475
 10
373397.1224
 20
9686347.3582
 10
373364.9794
 20
9686261.3942
 10
373335.8264
 20
9686139.5496
 10
372873.078999999
 20
9686009.6485
 10
372482.378999999
 20
9686152.1743
 10
372396.6642
 20
9686176.0947
 10
372312.942800001
 20
9686224.9322
 10
372162.443499999
 20
9686331.5774
 10
371946.6615
 20
9686405.8303
 10
371708.5966
 20
9686535.8772
 10
371687.4299
 20
9686617.8982
 10
371711.242399999
 20
9686691.9816
 10
371671.5549
 20
9686766.0651
 10
371586.888
 20
9686787.2318
 10
371496.929499998
 20
9686779.2943
 10
371491.637799998
 20
9686649.6482
 10
371404.325199999
 20
9686559.6897
 10
371324.010999999
 20
9686568.6773
 10
371136.606800002
 20
9686775.6
 10
371051.390299998
 20
9686861.5639
 10
370734.444899999
 20
9687152.3464
 10
370522.151200001
 20
9687318.2943
 10
370238.096400001
 20
9687508.1625
 10
370069.158499998
 20
9687615.8044
 10
369952.546499999
 20
9687680.838
 10
369852.379799999
 20
9687788.8536
 10
369690.916999999
 20
9687912.9407
 10
369576.5475
 20
9688023.9464
 10
369445.732799999
 20
9688106.1728
 10
369308.9379
 20
9688186.1567
 10
369221.8527
 20
9688233.25
 10
369129.5349
 20
9688287.8184
 10
368966.577099999
 20
9688363.3172
 10
368913.503699998
 20
9688402.5616
 10
368840.9949
 20
9688437.6947
 10
368778.951399999
 20
9688518.0523
 10
368756.526
 20
9688579.3484
 10
368687.754799999
 20
9688619.7141
 10
368595.5615
 20
9688640.1461
 10
368557.687599999
 20
9688684.0002
 10
368547.720699999
 20
9688754.7647
 10
368439.0822
 20
9688871.3767
 10
368377.287800001
 20
9688995.9622
 10
368338.417100001
 20
9689040.813
 10
368308.0961
 20
9689108.385
 10
368228.543099999
 20
9689149.5787
 10
368100.381000002
 20
9689101.2369
 10
368002.4101
 20
9689092.4069
 10
367928.406399998
 20
9689079.3722
 10
367841.9752
 20
9689089.4636
 10
367763.112599999
 20
9689094.6962
 10
367676.401100003
 20
9689108.5252
 10
367551.566500001
 20
9689121.2329
 10
367426.731799999
 20
9689117.4953
 10
367228.6409
 20
9689130.9506
 10
367023.074900003
 20
9689160.1036
 10
366861.612099999
 20
9689157.1135
 10
366743.0898
 20
9689187.4293
 10
366586.278199998
 20
9689212.6786
 10
366435.4468
 20
9689238.5924
 10
366269.9973
 20
9689155.5354
 10
366143.086199999
 20
9689129.6217
 10
365990.187500001
 20
9689152.287
 10
365868.518299998
 20
9689170.0058
 10
365710.230099999
 20
9689186.5434
 10
365625.1798
 20
9689203.08090001
 10
365530.679399999
 20
9689184.1809
 10
365429.091499999
 20
9689193.6309
 10
365334.5911
 20
9689200.7184
 10
365202.290599999
 20
9689174.7308
 10
365088.890099999
 20
9689177.0933
 10
364966.039600001
 20
9689191.2684
 10
364852.639100003
 20
9689214.8935
 10
364696.565800002
 20
9689249.8882
 10
364606.9381
 20
9689257.4187
 10
364425.024899999
 20
9689240.8811
 10
364210.1842
 20
9689244.5725
 10
364016.3107
 20
9689247.9686
 10
363739.749399999
 20
9689224.6388
 10
363586.334
 20
9689250.3311
 10
363392.608200001
 20
9689226.706
 10
363217.782499998
 20
9689212.531
 10
362943.731299998
 20
9689155.8307
 10
362709.842899999
 20
9689075.5054
 10
362636.605099999
 20
9688945.5674
 10
362620.1409
 20
9688850.986
 10
362538.1549
 20
9688778.9551
 10
362420.0479
 20
9688793.9053
 10
362215.976899999
 20
9688808.8556
 10
362038.068799999
 20
9688852.9589
 10
361844.4768
 20
9688875.4673
 10
360688.0607
 20
9689071.2326
 10
360513.1427
 20
9689122.811
 10
360417.460999999
 20
9689128.0436
 10
360301.970300001
 20
9689115.3359
 10
360239.553
 20
9689122.0635
 10
359889.717
 20
9689188.5921
 10
359731.244199999
 20
9689203.5424
 10
359554.0837
 20
9689228.9578
 10
359203.500200002
 20
9689296.234
 10
358969.528699998
 20
9689323.1444
 10
358899.262499999
 20
9689309.6892
 10
358630.905399998
 20
9689343.3273
 10
358398.428899998
 20
9689362.0151
 10
358214.5407
 20
9689374.7228
 10
358058.310599999
 20
9689368.7427
 10
358006.7322
 20
9689373.6015
 10
357972.346599999
 20
9689323.8919
 10
357821.739699999
 20
9689334.3817
 10
357469.9103
 20
9689435.0468
 10
357288.513900002
 20
9689447.007
 10
357200.307400002
 20
9689433.0534
 10
356800.138799999
 20
9689430.0634
 10
356126.380599999
 20
9689520.7616
 10
355718.736999998
 20
9689549.6654
 10
355249.2989
 20
9689555.6455
 10
354992.154499999
 20
9689550.6621
 10
354733.0167
 20
9689547.672
 10
353991.484
 20
9689625.4134
 10
353499.122199999
 20
9689658.3039
 10
353091.4786
 20
9689693.1879
 10
352597.123399999
 20
9689752.9889
 10
352383.6799
 20
9689757.8291
 10
352033.000399999
 20
9689767.9392
 10
351672.200899998
 20
9689765.9458
 10
351211.732999999
 20
9689753.9856
 10
350994.456
 20
9689741.0287
 10
350570.8654
 20
9689685.2144
 10
349925.473800001
 20
9689543.2669
 10
349509.507899998
 20
9689440.2517
 10
348697.985799999
 20
9689314.448
 10
348372.379200001
 20
9689254.9388
 10
348242.733099998
 20
9689225.8345
 10
348136.899600002
 20
9689202.022
 10
348006.149599999
 20
9689150.4849
 10
347836.900500001
 20
9689107.5093
 10
347703.9664
 20
9689085.0348
 10
347614.942
 20
9689060.7758
 10
347511.484200002
 20
9689052.4927
 10
347112.2248
 20
9689032.176
 10
346796.2761
 20
9688997.2921
 10
345979.992100001
 20
9688931.5109
 10
345348.094600002
 20
9688898.6204
 10
344437.711500002
 20
9688918.2987
 10
344219.848599999
 20
9688922.54080001
 10
343829.148500002
 20
9688950.4479
 10
343423.498299998
 20
9688954.4347
 10
343034.7756
 20
9688983.3838
 10
342209.5374
 20
9689072.0434
 10
341927.475899999
 20
9689122.8742
 10
341710.198900002
 20
9689184.6686
 10
341277.6381
 20
9689178.6885
 10
341106.495599998
 20
9689189.147
 10
340569.992699999
 20
9689265.4
 10
340412.516599998
 20
9689299.2873
 10
340030.786799999
 20
9689391.9788
 10
338919.484400001
 20
9689764.7386
 10
338446.059600003
 20
9689976.0355
 10
338256.053500001
 20
9690037.6672
 10
338170.593500001
 20
9690060.3461
 10
337993.670999999
 20
9690107.223
 10
337779.882399999
 20
9690175.2466
 10
337437.521499999
 20
9690347.9221
 10
337320.161999999
 20
9690396.5104
 10
336851.471399999
 20
9690569.1859
 10
336626.470099999
 20
9690660.3825
 10
336447.8145
 20
9690724.6686
 10
336259.441300002
 20
9690801.6624
 10
336151.051899999
 20
9690853.2408
 10
335965.336499998
 20
9690934.7197
 10
335776.6311
 20
9691027.7435
 10
335218.4882
 20
9691292.1969
 10
334526.125199998
 20
9691653.6609
 10
334107.518
 20
9691841.0374
 10
333563.341399999
 20
9692109.6928
 10
333491.142099998
 20
9692140.4161
 10
333287.3826
 20
9692121.3489
 10
333157.346199999
 20
9692105.4908
 10
333101.531899998
 20
9692060.3078
 10
332879.603599999
 20
9691903.4963
 10
332638.711099998
 20
9691869.4612
 10
332591.297299998
 20
9691881.5718
 10
332440.285199999
 20
9691881.3787
 10
332359.029999999
 20
9691835.0651
 10
332277.775
 20
9691788.7513
 10
331961.0142
 20
9691744.4421
 10
331891.371099999
 20
9691655.5749
 10
331806.704299999
 20
9691573.5539
 10
331732.620799999
 20
9691560.3247
 10
331657.214399998
 20
9691543.1268
 10
331600.328899999
 20
9691488.8871
 10
331571.224699999
 20
9691435.9703
 10
331515.662
 20
9691417.4494
 10
331399.245100002
 20
9691417.4494
 10
331285.4741
 20
9691425.3869
 10
331200.8073
 20
9691441.262
 10
331113.494599999
 20
9691449.1995
 10
331026.181899999
 20
9691398.9286
 10
330983.848500001
 20
9691356.5951
 10
330952.098399999
 20
9691303.6784
 10
330952.098399999
 20
9691232.2407
 10
330978.556799999
 20
9691168.7406
 10
331031.4736
 20
9691078.7821
 10
331068.515299999
 20
9690946.4902
 10
331094.973699998
 20
9690840.6566
 10
331118.786299999
 20
9690734.8231
 10
331139.952999999
 20
9690663.3854
 10
331129.3696
 20
9690586.6561
 10
331049.9944
 20
9690446.4267
 10
330667.384899999
 20
9689972.8011
 10
330590.640199999
 20
9689838.2487
 10
330419.210599999
 20
9689625.9551
 10
330311.568799999
 20
9689443.562
 10
330044.457499999
 20
9689112.663
 10
329906.915199999
 20
9688898.376
 10
329742.462399999
 20
9688739.9032
 10
329458.4075
 20
9688470.7986
 10
329141.4621
 20
9688246.5448
 10
328893.2878
 20
9688115.9792
 10
328555.5575
 20
9687952.0104
 10
328188.150500001
 20
9687844.2402
 10
327896.5322
 20
9687714.747
 10
327569.1012
 20
9687677.0692
 10
327459.465899999
 20
9687617.2682
 10
327373.751099998
 20
9687597.3345
 10
327317.936899999
 20
9687578.3975
 10
327221.258500001
 20
9687501.6529
 10
327117.603399999
 20
9687473.7457
 10
326941.190399999
 20
9687449.8253
 10
326802.6513
 20
9687406.9679
 10
326749.827099999
 20
9687372.084
 10
326668.098999999
 20
9687348.1636
 10
326535.540099999
 20
9687327.2332
 10
326442.8485
 20
9687321.2531
 10
326343.180099999
 20
9687321.2531
 10
326246.5018
 20
9687339.1934
 10
326183.710699999
 20
9687339.1934
 10
326084.042400002
 20
9687331.5522
 10
325925.9019
 20
9687096.3348
 10
325838.193699999
 20
9686997.9954
 10
325743.841
 20
9686910.2872
 10
325649.4882
 20
9686886.3668
 10
325537.8597
 20
9686854.4729
 10
325484.703199999
 20
9686801.3164
 10
325440.849099999
 20
9686746.8311
 10
325400.9818
 20
9686700.3191
 10
325329.2205
 20
9686664.4385
 10
325224.236500001
 20
9686621.9134
 10
325141.843999999
 20
9686558.1256
 10
325000.979299998
 20
9686485.0355
 10
324876.061599999
 20
9686421.2477
 10
324731.210299999
 20
9686364.1045
 10
324547.820499999
 20
9686279.0541
 10
324315.260899999
 20
9686197.9905
 10
323541.104400001
 20
9685974.9594
 10
323268.583099999
 20
9685985.5427
 10
322974.894999998
 20
9686049.0429
 10
322678.561
 20
9686131.0639
 10
322622.998399998
 20
9686094.0221
 10
322546.269099999
 20
9685837.3758
 10
322421.914699998
 20
9685641.5837
 10
322353.122899998
 20
9685506.6459
 10
322398.1021
 20
9685392.8749
 10
322467.582999998
 20
9685386.6643
 10
322890.6639
 20
9685322.995
 10
322651.048499999
 20
9685212.6341
 10
322471.4977
 20
9685163.0214
 10
322159.039399998
 20
9685029.4491
 10
322040.913899999
 20
9685043.6242
 10
321851.913199999
 20
9685031.8116
 10
321742.056499999
 20
9685081.4243
 10
321648.1467
 20
9685154.0715
 10
321630.034099999
 20
9685228.2937
 10
321576.8777
 20
9685398.3944
 10
321257.9389
 20
9685703.1581
 10
321146.1298
 20
9685761.4005
 10
320917.556999999
 20
9685830.504
 10
320720.894499999
 20
9685805.9358
 10
320634.183
 20
9685780.4996
 10
320250.148299999
 20
9685579.7924
 10
320024.773199999
 20
9685470.4686
 10
319846.545
 20
9685389.7885
 10
320007.447199999
 20
9685401.5618
 10
320072.4808
 20
9685398.198
 10
320187.691199999
 20
9685398.198
 10
320175.076899998
 20
9685349.9834
 10
320083.1328
 20
9685317.4666
 10
319955.8688
 20
9685296.7232
 10
319442.888099999
 20
9685279.9041
 10
319271.3892
 20
9685300.2276
 10
319023.214999999
 20
9685285.2773
 10
318665.8985
 20
9685204.5893
 10
318471.6214
 20
9685183.9381
 10
318329.095599998
 20
9685143.074
 10
318003.1801
 20
9685125.1337
 10
317700.188199999
 20
9685004.535
 10
317537.237399999
 20
9684954.1241
 10
317339.388699999
 20
9684939.7505
 10
317124.105000001
 20
9684947.724
 10
316723.438099999
 20
9684954.7008
 10
316481.243999999
 20
9684968.6544
 10
316029.746199999
 20
9685042.409
 10
315539.9193
 20
9685207.4405
 10
315251.5455
 20
9685279.8662
 10
314933.935599999
 20
9685419.4019
 10
314715.108199999
 20
9685459.8969
 10
314467.557999999
 20
9685549.4285
 10
314345.227699999
 20
9685580.2003
 10
314226.745299999
 20
9685544.0731
 10
313910.4643
 20
9685431.1156
 10
313731.0612
 20
9685403.2085
 10
313541.026899999
 20
9685356.6966
 10
313364.2816
 20
9685318.1581
 10
313146.340099999
 20
9685314.1714
 10
312816.769999998
 20
9685259.686
 10
312624.0778
 20
9685243.7391
 10
312388.860500001
 20
9685231.7789
 10
312101.815499998
 20
9685177.2935
 10
311760.7725
 20
9685183.3245
 10
311643.2973
 20
9685186.4995
 10
311535.853199999
 20
9685198.3821
 10
311478.197
 20
9685219.837
 10
311330.559199999
 20
9685211.8995
 10
311233.7215
 20
9685167.4494
 10
311183.715099998
 20
9685194.437
 10
311132.121299998
 20
9685242.0621
 10
311062.271099999
 20
9685229.3621
 10
311005.120999999
 20
9685192.8495
 10
311032.108599999
 20
9685102.3618
 10
310978.5848
 20
9685082.2019
 10
310972.7017
 20
9685158.5544
 10
310884.3982
 20
9685120.325
 10
310872.438
 20
9685043.3312
 10
310811.141899999
 20
9685034.7348
 10
310746.1083
 20
9685002.5917
 10
310656.7806
 20
9684983.9039
 10
310544.279900001
 20
9684954.3772
 10
310471.494299999
 20
9684934.3628
 10
310398.514899999
 20
9684914.759
 10
310284.394599999
 20
9684910.2739
 10
310224.301699999
 20
9684935.4959
 10
309968.481499998
 20
9684897.5739
 10
309420.7929
 20
9684922.9739
 10
308974.7045
 20
9684956.3115
 10
308129.587799999
 20
9684807.8284
 10
307754.647799999
 20
9684741.5489
 10
307518.6207
 20
9684734.8213
 10
307330.247399999
 20
9684721.9267
 10
307262.410599999
 20
9684717.4416
 10
307043.8638
 20
9684738.9601
 10
306966.496199999
 20
9684744.0058
 10
306891.371199998
 20
9684757.461
 10
306820.1706
 20
9684765.3099
 10
306515.822199999
 20
9684787.83
 10
306045.513699999
 20
9684896.2181
 10
305924.9133
 20
9684902.7601
 10
305856.719999998
 20
9684921.8671
 10
305762.022799999
 20
9684910.1152
 10
305680.0714
 20
9684894.7762
 10
305608.386399999
 20
9684881.4157
 10
305485.046799999
 20
9684882.5369
 10
305380.768799999
 20
9684892.348
 10
305224.912299999
 20
9684906.0836
 10
305130.725699999
 20
9684922.342
 10
305057.2826
 20
9684932.4334
 10
304888.8119
 20
9684946.169
 10
304799.110399998
 20
9684963.5486
 10
304717.289699999
 20
9685000.1528
 10
304641.811200001
 20
9684981.0789
 10
304584.031899999
 20
9684962.9421
 10
304531.0143
 20
9684989.8543
 10
304434.445399999
 20
9684983.2991
 10
304323.320199999
 20
9684969.0115
 10
304109.007199999
 20
9684881.6989
 10
303931.206899998
 20
9684830.8988
 10
303858.181699999
 20
9684829.3113
 10
303777.2191
 20
9684800.7362
 10
303726.419
 20
9684754.6986
 10
303667.681399998
 20
9684752.3173
 10
303543.856099999
 20
9684799.1487
 10
303475.5935
 20
9684765.8111
 10
303431.1434
 20
9684713.4235
 10
303366.849499999
 20
9684727.7111
 10
303306.167999999
 20
9684764.607
 10
303228.681999999
 20
9684718.4101
 10
303178.2249
 20
9684675.2413
 10
303095.369399999
 20
9684659.2077
 10
303054.4431
 20
9684619.9633
 10
302942.758399999
 20
9684523.3093
 10
302933.0657
 20
9684579.8779
 10
302846.0489
 20
9684535.9236
 10
302760.552099998
 20
9684508.1722
 10
302706.7312
 20
9684473.4128
 10
302726.852
 20
9684430.7061
 10
302665.923299998
 20
9684394.8685
 10
302592.7605
 20
9684395.7094
 10
302527.547799998
 20
9684305.0127
 10
302479.455799998
 20
9684269.7321
 10
302430.8909
 20
9684295.0001
 10
302382.4836
 20
9684266.0135
 10
302303.707399999
 20
9684221.6954
 10
302249.017499999
 20
9684170.4604
 10
302192.954
 20
9684117.2401
 10
302139.185699999
 20
9684094.8272
 10
302070.910899999
 20
9684027.3409
 10
302007.2088
 20
9683967.2654
 10
301953.913399999
 20
9683909.8704
 10
301925.078999998
 20
9683857.6998
 10
301858.9364
 20
9683789.1777
 10
301859.197499999
 20
9683748.7868
 10
301678.682599999
 20
9683564.8528
 10
301511.115199998
 20
9683425.8154
 10
301353.6391
 20
9683325.1503
 10
301048.0933
 20
9683068.0682
 10
300806.4597
 20
9682902.1204
 10
300431.395199999
 20
9682709.8227
 10
300285.6302
 20
9682633.5764
 10
300085.764
 20
9682525.9345
 10
299726.1169
 20
9682322.9848
 10
299630.248299999
 20
9682292.7105
 10
299393.660499999
 20
9682220.3887
 10
299226.0308
 20
9682171.0528
 10
299071.856299998
 20
9682132.9297
 10
298828.540799999
 20
9682039.3037
 10
298717.5352
 20
9682013.5145
 10
298618.863499999
 20
9681970.1588
 10
298036.550999999
 20
9681861.0219
 10
297442.044699999
 20
9681769.6852
 10
296625.517299999
 20
9681673.3549
 10
296552.492099999
 20
9681690.8175
 10
296261.978999999
 20
9681678.1175
 10
296160.0135
 20
9681692.7381
 10
296110.297
 20
9681653.1542
 10
296021.581099999
 20
9681635.9662
 10
295943.0479
 20
9681612.0067
 10
295687.3985
 20
9681489.2277
 10
295501.1277
 20
9681399.2459
 10
295351.4383
 20
9681317.6735
 10
295193.549499999
 20
9681179.3369
 10
295098.5765
 20
9681010.6171
 10
295067.567999999
 20
9680965.4608
 10
295022.496199998
 20
9680895.4976
 10
294944.7747
 20
9680857.4637
 10
294885.2433
 20
9680887.2294
 10
294822.113699999
 20
9680928.4191
 10
294819.625699998
 20
9681006.9097
 10
294805.749999998
 20
9681082.5954
 10
294776.894799998
 20
9681125.7993
 10
294756.238899999
 20
9681167.111
 10
294741.022899999
 20
9681215.3607
 10
294711.9838
 20
9681271.9147
 10
294677.9253
 20
9681325.7356
 10
294643.544899999
 20
9681351.2368
 10
294596.9836
 20
9681419.5017
 10
294598.2307
 20
9681500.5518
 10
294610.340699998
 20
9681554.6362
 10
294633.6086
 20
9681625.0566
 10
294554.7243
 20
9681691.685
 10
294507.201299999
 20
9681636.0565
 10
294427.4198
 20
9681659.9084
 10
294323.6674
 20
9681787.9433
 10
294292.8412
 20
9681846.9151
 10
294252.0813
 20
9681898.3182
 10
294244.933299999
 20
9681950.9829
 10
294313.225599999
 20
9682009.2889
 10
294322.0906
 20
9682077.914
 10
294344.6517
 20
9682142.9551
 10
294289.1481
 20
9682167.0775
 10
294239.944299999
 20
9682121.9019
 10
294136.2481
 20
9682096.8208
 10
294074.1425
 20
9682088.6281
 10
294039.124699999
 20
9682156.7189
 10
294026.7601
 20
9682213.1087
 10
294055.536399999
 20
9682265.2214
 10
294049.6761
 20
9682316.1253
 10
293988.391699999
 20
9682317.0713
 10
293987.088199999
 20
9682370.4087
 10
294009.8885
 20
9682438.7466
 10
294020.926
 20
9682495.3531
 10
294028.2581
 20
9682568.516
 10
293943.505899999
 20
9682559.0553
 10
293934.881099999
 20
9682612.4343
 10
293875.0421
 20
9682640.028
 10
293826.555999998
 20
9682619.6086
 10
293774.0333
 20
9682670.05
 10
293742.592199998
 20
9682733.3737
 10
293792.3661
 20
9682753.9507
 10
293873.612499999
 20
9682770.5493
 10
293952.4877
 20
9682802.3524
 10
293928.093599999
 20
9682858.6064
 10
293879.3183
 20
9682865.7545
 10
293830.9336
 20
9682859.9579
 10
293794.077399999
 20
9682816.9793
 10
293758.326399999
 20
9682861.6549
 10
293738.1435
 20
9682907.697
 10
293709.813999999
 20
9682948.0101
 10
293712.012399999
 20
9682998.7373
 10
293737.890299999
 20
9683066.528
 10
293774.0775
 20
9683105.6914
 10
293699.74
 20
9683119.0705
 10
293622.3514
 20
9683077.5852
 10
293588.408499999
 20
9683043.0326
 10
293535.0264
 20
9683062.6399
 10
293491.3949
 20
9683102.0149
 10
293500.518499999
 20
9683144.3095
 10
293475.565899999
 20
9683189.4844
 10
293480.467099999
 20
9683242.0264
 10
293492.450599999
 20
9683301.3135
 10
293490.1446
 20
9683378.7533
 10
293480.545899999
 20
9683428.56
 10
293474.724799999
 20
9683491.358
 10
293453.484199999
 20
9683547.414
 10
293406.417199999
 20
9683572.9382
 10
293365.263099999
 20
9683595.0131
 10
293305.9562
 20
9683597.674
 10
293276.7266
 20
9683652.6446
 10
293254.344799999
 20
9683718.6996
 10
293238.0165
 20
9683757.2643
 10
293180.9369
 20
9683768.1835
 10
293155.511299999
 20
9683837.1679
 10
293115.736899999
 20
9683887.8221
 10
293061.212799998
 20
9683918.2217
 10
292978.504899999
 20
9683929.1952
 10
292936.286500001
 20
9684003.8165
 10
292970.759
 20
9684038.5846
 10
292929.318699999
 20
9684102.7298
 10
292877.679599999
 20
9684121.8989
 10
292831.441299999
 20
9684131.2404
 10
292818.511599999
 20
9684093.713
 10
292794.139
 20
9684009.9632
 10
292786.765699999
 20
9683934.3
 10
292794.6935
 20
9683851.4541
 10
292727.388599999
 20
9683726.8168
 10
292718.2596
 20
9683669.6258
 10
292740.138899999
 20
9683618.616
 10
292696.576499999
 20
9683564.6758
 10
292658.531999998
 20
9683507.193
 10
292614.3179
 20
9683482.9811
 10
292571.687099999
 20
9683473.5086
 10
292519.714100001
 20
9683479.7472
 10
292475.065899999
 20
9683459.3397
 10
292409.471799999
 20
9683463.5305
 10
292352.717199999
 20
9683468.7845
 10
292287.8731
 20
9683454.3407
 10
292215.288499998
 20
9683460.4376
 10
292143.360799998
 20
9683476.5733
 10
292070.3557
 20
9683488.7146
 10
291933.218199999
 20
9683534.6889
 10
291944.372299998
 20
9683582.47
 10
291895.964999999
 20
9683594.5481
 10
291810.806399999
 20
9683559.7745
 10
291715.793299999
 20
9683568.6485
 10
291661.289
 20
9683578.7027
 10
291581.913799998
 20
9683599.3403
 10
291486.6637
 20
9683637.9695
 10
291423.459799999
 20
9683659.7983
 10
291453.589299999
 20
9683691.651
 10
291497.3678
 20
9683724.6553
 10
291503.3382
 20
9683787.6423
 10
291430.736399999
 20
9683755.8357
 10
291369.533399999
 20
9683715.3971
 10
291321.8143
 20
9683711.4235
 10
291305.478799999
 20
9683650.2847
 10
291271.208399999
 20
9683670.9585
 10
291219.255599998
 20
9683623.7113
 10
291153.8148
 20
9683617.0152
 10
291084.3198
 20
9683619.0958
 10
290996.125199999
 20
9683624.2111
 10
290890.820799999
 20
9683631.6195
 10
290799.803899999
 20
9683621.5653
 10
290738.9497
 20
9683612.0403
 10
290684.9746
 20
9683612.5694
 10
290634.442999999
 20
9683638.8156
 10
290594.131399999
 20
9683617.0588
 10
290496.033399999
 20
9683594.039
 10
290437.955999999
 20
9683579.0445
 10
290358.337099999
 20
9683531.949
 10
290292.5512
 20
9683500.7984
 10
290185.160799999
 20
9683465.3183
 10
290103.1133
 20
9683463.4176
 10
290040.3896
 20
9683447.2616
 10
289947.993799999
 20
9683434.4845
 10
289842.433699999
 20
9683432.091
 10
289743.314899999
 20
9683440.5387
 10
289653.77
 20
9683438.8491
 10
289529.026799998
 20
9683450.1126
 10
289186.053299999
 20
9683469.5422
 10
289095.6666
 20
9683470.7448
 10
288999.9239
 20
9683471.5133
 10
288843.287299999
 20
9683501.7324
 10
288787.8024
 20
9683523.5668
 10
288659.961699998
 20
9683577.6316
 10
288612.086899999
 20
9683629.0094
 10
288593.404
 20
9683678.0519
 10
288513.3355
 20
9683687.2264
 10
288483.4925
 20
9683642.1553
 10
288433.432
 20
9683635.4317
 10
288456.785599999
 20
9683682.1388
 10
288444.525
 20
9683758.0379
 10
288375.048099999
 20
9683785.4784
 10
288317.831799999
 20
9683763.2925
 10
288252.441799999
 20
9683734.6843
 10
288195.225599998
 20
9683715.4176
 10
288184.7164
 20
9683780.8077
 10
288137.4255
 20
9683814.6703
 10
288053.936399999
 20
9683748.1127
 10
287997.973199998
 20
9683696.7207
 10
288022.001899999
 20
9683627.6379
 10
288076.122299999
 20
9683576.4639
 10
288079.0703
 20
9683496.5433
 10
288076.817599999
 20
9683423.3305
 10
288072.875399999
 20
9683358.5654
 10
288068.651599999
 20
9683252.1253
 10
288052.3195
 20
9683151.317
 10
288048.6589
 20
9683061.209
 10
288028.384599999
 20
9682993.0649
 10
287999.099499998
 20
9682896.1988
 10
287992.278799999
 20
9682837.6286
 10
287939.9036
 20
9682764.979
 10
287861.059099999
 20
9682678.2501
 10
287777.145999998
 20
9682611.7954
 10
287672.958599999
 20
9682532.3878
 10
287453.8836
 20
9682397.789
 10
287266.3463
 20
9682308.8073
 10
287170.888199998
 20
9682275.0168
 10
287100.209699999
 20
9682269.3851
 10
287019.675699998
 20
9682236.7209
 10
286922.246399999
 20
9682212.5044
 10
286648.543399998
 20
9682151.6815
 10
286407.0665
 20
9682117.6407
 10
286196.877099999
 20
9682100.9958
 10
285938.943
 20
9682110.0066
 10
285353.8042
 20
9682101.6215
 10
285085.482699998
 20
9682158.6899
 10
284613.917499999
 20
9682140.6683
 10
284091.4771
 20
9682235.7976
 10
283973.149599999
 20
9682227.7727
 10
283600.703199999
 20
9682321.8855
 10
283305.349299998
 20
9682384.9611
 10
283059.0541
 20
9682408.9899
 10
282824.773299998
 20
9682370.9443
 10
282634.545300001
 20
9682365.9383
 10
282532.422899998
 20
9682324.8891
 10
282460.336499999
 20
9682265.8183
 10
282388.250199999
 20
9682174.7091
 10
282319.1674
 20
9682027.5327
 10
282261.097799999
 20
9681875.3503
 10
282231.0618
 20
9681760.2124
 10
282211.0378
 20
9681682.1188
 10
282166.985
 20
9681623.048
 10
281792.5362
 20
9681427.814
 10
281441.115099998
 20
9681291.6508
 10
281161.780299999
 20
9681216.5608
 10
280940.515100001
 20
9681199.5404
 10
280700.227099999
 20
9681122.448
 10
280289.7352
 20
9681076.3928
 10
280051.449599998
 20
9681049.3604
 10
279920.292399999
 20
9681001.3028
 10
279756.095599999
 20
9680953.2452
 10
279576.880899999
 20
9680964.2584
 10
279306.556899999
 20
9680963.2572
 10
279220.453699999
 20
9681045.3556
 10
279051.250899999
 20
9681038.3472
 10
279010.201699999
 20
9680989.2884
 10
278950.129699999
 20
9681048.3592
 10
278879.8232
 20
9681056.4801
 10
278644.325199999
 20
9680981.0514
 10
278560.9813
 20
9680985.0202
 10
278485.574899999
 20
9681068.3641
 10
278279.9933
 20
9680983.5037
 10
278093.1026
 20
9680842.8908
 10
277717.541399999
 20
9680727.1966
 10
277667.423799999
 20
9680672.0076
 10
277541.771099998
 20
9680477.1244
 10
277418.516399999
 20
9680397.913
 10
277002.017199998
 20
9680301.7978
 10
276539.240399998
 20
9680207.4626
 10
275900.252399999
 20
9680116.6871
 10
275220.3264
 20
9680164.7447
 10
274892.822799999
 20
9680250.1804
 10
274545.740199998
 20
9680157.6251
 10
274284.0933
 20
9680152.2853
 10
273831.9959
 20
9680191.4434
 10
273426.176199999
 20
9680057.95
 10
273155.6297
 20
9680006.3326
 10
272981.1985
 20
9680050.8304
 10
272554.019799998
 20
9679904.8777
 10
271806.4573
 20
9679949.3755
 10
271197.7277
 20
9679865.7197
 10
270508.902200001
 20
9679817.6621
 10
270339.8107
 20
9679806.9826
 10
270190.2981
 20
9679823.0018
 10
270005.187399998
 20
9679780.2839
 10
269028.016299999
 20
9679840.8009
 10
268396.147899999
 20
9679842.5808
 10
268061.524699999
 20
9679876.3991
 10
267783.8586
 20
9679922.6768
 10
267468.814299999
 20
9680052.6103
 10
267335.321000001
 20
9680125.5867
 10
267226.0037
 20
9680210.2602
 10
267170.0837
 20
9680229.077
 10
267067.557399999
 20
9680252.2281
 10
266899.242799999
 20
9680253.7402
 10
266758.629899999
 20
9680283.9987
 10
266552.160199999
 20
9680230.6014
 10
266464.207099999
 20
9680127.7685
 10
266317.3631
 20
9680099.9872
 10
266067.3313
 20
9680167.456
 10
265892.706
 20
9680298.4251
 10
265733.955599999
 20
9680330.1751
 10
265658.5492
 20
9680338.1126
 10
265612.9085
 20
9680286.5188
 10
265646.642999999
 20
9680179.3623
 10
265698.236799999
 20
9680088.0809
 10
265738.3655
 20
9679999.804
 10
265797.2173
 20
9679935.8836
 10
265844.242399999
 20
9679842.6782
 10
265869.491399998
 20
9679749.1911
 10
265910.6344
 20
9679664.2143
 10
265967.702799998
 20
9679622.1639
 10
266034.7832
 20
9679562.0919
 10
266090.850399999
 20
9679482.9971
 10
266148.919999999
 20
9679407.9071
 10
266206.602300001
 20
9679349.2071
 10
266283.7278
 20
9679296.4189
 10
266325.131199998
 20
9679228.6923
 10
266379.423999999
 20
9679145.3801
 10
266267.768999999
 20
9679231.5282
 10
266098.5191
 20
9679306.3408
 10
265765.722099998
 20
9679429.6869
 10
265632.263099999
 20
9679498.2978
 10
265550.519399999
 20
9679542.3026
 10
265298.152899999
 20
9679818.972
 10
265123.340799999
 20
9680142.7259
 10
265023.665799999
 20
9680531.9331
 10
264933.483599999
 20
9680790.6134
 10
264872.735199999
 20
9680854.0512
 10
264781.4537
 20
9680913.5825
 10
264698.109799998
 20
9680893.7387
 10
264605.98
 20
9680804.8527
 10
264601.233599998
 20
9680614.9956
 10
264451.721099999
 20
9680493.9616
 10
264316.447799999
 20
9680401.4063
 10
264269.484
 20
9680357.9564
 10
264150.3228
 20
9680282.7455
 10
264078.983599998
 20
9680226.9874
 10
263958.0924
 20
9680140.3527
 10
263784.682999999
 20
9680122.2679
 10
263341.485199998
 20
9680052.8514
 10
262990.3977
 20
9680112.9233
 10
262739.430299998
 20
9680138.2871
 10
262338.950299999
 20
9680110.2535
 10
261648.7899
 20
9680182.3399
 10
261501.9472
 20
9680142.2919
 10
261209.596899999
 20
9680142.2919
 10
260528.7809
 20
9680238.4071
 10
260056.214599998
 20
9680399.934
 10
259827.941
 20
9680363.8908
 10
259592.992799999
 20
9680393.2593
 10
259273.943699999
 20
9680501.3889
 10
259018.9715
 20
9680502.7238
 10
258804.047199998
 20
9680544.1068
 10
258339.4905
 20
9680670.9254
 10
258240.705399999
 20
9680664.2508
 10
258078.1884
 20
9680742.8327
 10
258021.776399998
 20
9680752.3563
 10
257964.9465
 20
9680704.7326
 10
257878.9385
 20
9680670.9254
 10
257796.172699998
 20
9680672.2604
 10
257668.6126
 20
9680679.3326
 10
257491.4062
 20
9680707.6245
 10
257418.845399998
 20
9680632.7658
 10
257358.314599999
 20
9680534.7622
 10
257278.086799998
 20
9680484.5989
 10
257187.443099999
 20
9680453.3313
 10
257143.678199999
 20
9680376.6487
 10
257099.228099999
 20
9680322.6735
 10
257035.827099999
 20
9680285.2183
 10
256824.3413
 20
9680237.0721
 10
256436.3207
 20
9680270.8904
 10
256238.750599999
 20
9680315.3882
 10
255793.7729
 20
9680425.7427
 10
255514.326899998
 20
9680532.5373
 10
255322.096499999
 20
9680507.6186
 10
255161.9045
 20
9680422.1829
 10
255026.631299999
 20
9680297.5891
 10
254828.2203
 20
9680271.8272
 10
254450.978299999
 20
9680277.5891
 10
253551.085099998
 20
9680413.2833
 10
252885.002899999
 20
9680562.5981
 10
252733.1172
 20
9680530.9552
 10
252524.274299998
 20
9680543.6123
 10
251929.023799999
 20
9680400.4796
 10
251645.522699998
 20
9680407.5672
 10
251167.114499999
 20
9680435.9173
 10
250626.690399998
 20
9680512.1082
 10
250390.076
 20
9680561.686
 10
250196.123
 20
9680593.6148
 10
249804.536999999
 20
9680678.6651
 10
249549.386
 20
9680701.6996
 10
249154.2563
 20
9680885.9754
 10
248922.139699999
 20
9680999.3758
 10
248707.157199999
 20
9681021.8364
 10
248435.958699999
 20
9680962.305
 10
248135.423999998
 20
9680868.2565
 10
247713.715999999
 20
9680712.3309
 10
247529.440299999
 20
9680623.7368
 10
247352.251999999
 20
9680474.8987
 10
247150.2575
 20
9680324.2887
 10
246999.647499999
 20
9680180.7662
 10
246971.297399999
 20
9680131.1535
 10
246861.440699999
 20
9680007.1218
 10
246262.544499998
 20
9679475.5571
 10
246122.565799999
 20
9679342.6659
 10
245976.2993
 20
9679109.0605
 10
245844.430599999
 20
9679038.3147
 10
245661.347299998
 20
9678945.6044
 10
245399.989299998
 20
9678764.9237
 10
245177.0005
 20
9678596.2367
 10
245070.479899999
 20
9678529.5212
 10
244953.8679
 20
9678474.0184
 10
244788.480699999
 20
9678406.1816
 10
244656.9418
 20
9678336.6278
 10
244563.374200001
 20
9678299.8712
 10
244364.535799999
 20
9678195.2194
 10
244161.959899999
 20
9678105.5179
 10
243891.314999999
 20
9677933.8108
 10
243410.335699999
 20
9677744.2823
 10
243274.288399998
 20
9677629.9129
 10
243214.4874
 20
9677533.4837
 10
243198.789599999
 20
9677448.2673
 10
241806.5185
 20
9676836.7765
 10
240829.800547318
 20
9676837.27281759
 10
240829.800547318
 20
10087954.3451801
 10
693708.693399999
 20
10087954.3451801
 10
693708.693399999
 20
9465706.5005
 10
693699.129
 20
9465736.4774
 10
693672.6104
 20
9465811.5809
 10
693548.255999999
 20
9466020.6022
 10
693053.484200001
 20
9467129.2086
 10
692794.191999999
 20
9467806.5433
 10
692725.400199999
 20
9467981.1686
 10
692437.0038
 20
9468864.8787
 10
692302.066
 20
9469296.1504
 10
692241.2118
 20
9469486.6508
 10
692151.253200001
 20
9469695.672
 10
692074.5239
 20
9469822.6723
 10
691997.7417
 20
9470054.6171
 10
691726.974999999
 20
9470781.3979
 10
691195.994800001
 20
9472602.7656
 10
690897.1257
 20
9473680.305
 10
690725.525299999
 20
9474220.6667
 10
690592.780199999
 20
9474546.2891
 10
690260.350399999
 20
9475190.7265
 10
690093.568100001
 20
9475484.5809
 10
689935.8625
 20
9475723.9758
 10
689729.370199999
 20
9475997.4079
 10
689265.140799999
 20
9476706.6735
 10
689105.893000001
 20
9476926.749
 10
688849.887100001
 20
9477172.983
 10
688679.7012
 20
9477311.6845
 10
688283.037200001
 20
9477672.8755
 10
687745.931900001
 20
9478162.3556
 10
687364.037800001
 20
9478556.8888
 10
686863.817200001
 20
9479103.5009
 10
686201.100500001
 20
9479759.5362
 10
685805.1346
 20
9480130.5415
 10
685688.273599999
 20
9480245.1334
 10
685432.994699999
 20
9480451.6256
 10
685234.444399999
 20
9480601.0111
 10
684796.215600001
 20
9480878.7924
 10
684498.3902
 20
9481033.6616
 10
684174.185999999
 20
9481131.5185
 10
683900.186599999
 20
9481262.5617
 10
683620.608900001
 20
9481343.0218
 10
683425.3678
 20
9481325.5305
 10
683346.2944
 20
9481336.9707
 10
683232.206799999
 20
9481252.6341
 10
683210.9645
 20
9481186.5492
 10
683131.589399999
 20
9481104.5282
 10
683049.568400001
 20
9481091.299
 10
682988.7141
 20
9481128.3407
 10
682991.359899999
 20
9481213.0076
 10
683009.8808
 20
9481284.4452
 10
682986.0682
 20
9481308.2578
 10
682946.3807
 20
9481271.216
 10
682880.234699999
 20
9481220.9451
 10
682837.901300001
 20
9481223.5909
 10
682761.359000001
 20
9481252.2559
 10
682636.2015
 20
9481255.896
 10
682576.8491
 20
9481397.5758
 10
682438.998500001
 20
9481449.908
 10
682414.108800001
 20
9481394.3848
 10
682372.626000001
 20
9481393.1085
 10
682257.7505
 20
9481448.6316
 10
682132.8765
 20
9481534.3628
 10
681409.586299999
 20
9481860.2689
 10
681265.779199999
 20
9481913.8774
 10
681066.6616
 20
9482003.225
 10
680994.3326
 20
9482054.2808
 10
680665.8737
 20
9482230.4233
 10
680541.638
 20
9482252.5475
 10
680401.234599999
 20
9482284.8828
 10
680180.843799999
 20
9482358.9137
 10
679942.583499999
 20
9482393.8018
 10
679854.086800001
 20
9482426.988
 10
679736.6585
 20
9482451.665
 10
679701.7704
 20
9482421.8825
 10
679382.671700001
 20
9482507.8264
 10
679229.5044
 20
9482518.8884
 10
678768.300499999
 20
9482618.4472
 10
678479.8353
 20
9482700.1365
 10
677799.091600001
 20
9482830.3287
 10
677675.7068
 20
9482850.751
 10
677081.757799999
 20
9482950.3098
 10
676636.721600001
 20
9483044.763
 10
676180.971300001
 20
9483205.3241
 10
675945.4917
 20
9483319.0951
 10
675760.283
 20
9483398.4703
 10
675503.6366
 20
9483536.0539
 10
675241.698600001
 20
9483639.2416
 10
675022.094
 20
9483750.3668
 10
674749.572599999
 20
9483898.5338
 10
674556.426400001
 20
9483993.784
 10
674122.5088
 20
9484197.5135
 10
673995.508599999
 20
9484263.6595
 10
673743.5606
 20
9484346.6854
 10
673714.3066
 20
9484329.2067
 10
673524.5493
 20
9484385.3681
 10
673138.2569
 20
9484493.8475
 10
672853.195399999
 20
9484578.9404
 10
672548.5626
 20
9484689.5613
 10
672300.3838
 20
9484843.6284
 10
672103.734
 20
9484983.3276
 10
671961.713799999
 20
9485098.0564
 10
671940.440600001
 20
9485088.6961
 10
671914.434000001
 20
9485011.9264
 10
671852.3793
 20
9485007.1402
 10
671733.316599999
 20
9485073.2861
 10
671474.131099999
 20
9485225.6958
 10
671093.0236
 20
9485390.7868
 10
670987.1901
 20
9485456.9327
 10
670841.669
 20
9485531.0162
 10
670682.9186
 20
9485605.0997
 10
670604.481
 20
9485656.2663
 10
670553.272500001
 20
9485623.6206
 10
670476.5432
 20
9485599.808
 10
670381.293
 20
9485583.933
 10
670140.521700001
 20
9485626.2664
 10
669918.271300001
 20
9485647.4331
 10
669627.229
 20
9485729.4541
 10
669328.2493
 20
9485867.0377
 10
668926.081799999
 20
9486136.9133
 10
668635.914800001
 20
9486376.8754
 10
668039.725900001
 20
9486954.4774
 10
667777.787800001
 20
9487237.5821
 10
667550.245700001
 20
9487531.2702
 10
667295.848300001
 20
9487909.5414
 10
666981.3904
 20
9488205.9591
 10
666894.0777
 20
9488240.355
 10
666633.693199999
 20
9488394.3732
 10
666480.875599999
 20
9488418.3841
 10
666250.851
 20
9488375.7655
 10
665886.075799999
 20
9488289.0427
 10
665640.1571
 20
9488235.4342
 10
665434.232100001
 20
9488152.0431
 10
665288.0537
 20
9488060.4379
 10
665167.8911
 20
9487889.1058
 10
665034.0532
 20
9487753.5207
 10
664840.906999999
 20
9487626.5204
 10
664811.802699999
 20
9487547.1452
 10
664809.1569
 20
9487483.6451
 10
664723.705799999
 20
9487427.051
 10
664408.861800001
 20
9487236.4427
 10
664216.489000001
 20
9487060.3109
 10
664195.322300001
 20
9487015.3317
 10
664184.739
 20
9486877.7481
 10
664086.8429
 20
9486827.4771
 10
663848.5826
 20
9486744.086
 10
663633.297399999
 20
9486700.6886
 10
663402.695500001
 20
9486670.0551
 10
663166.190199999
 20
9486670.5338
 10
662918.032999999
 20
9486693.1773
 10
662810.112599999
 20
9486710.5741
 10
662626.34
 20
9486745.4561
 10
662499.227299999
 20
9486776.53
 10
662427.749200001
 20
9486785.8902
 10
662372.4388
 20
9486767.1698
 10
662369.693700001
 20
9486721.6436
 10
662376.693499999
 20
9486669.3128
 10
662425.680900001
 20
9486641.3546
 10
662427.902099999
 20
9486615.81
 10
662414.6729
 20
9486589.3517
 10
662389.1849
 20
9486569.1288
 10
662295.610200001
 20
9486507.3307
 10
662172.331000001
 20
9486467.326
 10
661977.680900001
 20
9486443.0745
 10
661903.421999999
 20
9486443.5899
 10
661884.0018
 20
9486444.9213
 10
661774.38
 20
9486451.7681
 10
661724.109100001
 20
9486443.8305
 10
661618.8408
 20
9486442.2199
 10
661176.420500001
 20
9486520.5599
 10
660723.9821
 20
9486581.4141
 10
660416.456399999
 20
9486627.6378
 10
659877.313699999
 20
9486782.4979
 10
659534.6304
 20
9486922.1442
 10
659337.5626
 20
9487015.3317
 10
659057.103700001
 20
9487166.1445
 10
658343.3288
 20
9487597.2151
 10
657472.246399999
 20
9488116.0005
 10
657305.558500001
 20
9488203.3132
 10
657167.974899999
 20
9488208.6049
 10
657048.9122
 20
9488235.0633
 10
656916.6203
 20
9488243.0008
 10
656691.724000001
 20
9488319.7301
 10
656453.1303
 20
9488431.8826
 10
656132.424299999
 20
9488634.593
 10
655815.951399999
 20
9488846.252
 10
654953.408
 20
9489486.545
 10
654469.2195
 20
9489904.5875
 10
653828.926600001
 20
9490446.9844
 10
652497.252599999
 20
9491592.0464
 10
651847.193499999
 20
9492148.2586
 10
651355.0675
 20
9492566.3011
 10
650928.6141
 20
9492956.843
 10
650262.336100001
 20
9493608.7615
 10
649950.257700001
 20
9493921.3186
 10
649497.3308
 20
9494371.1543
 10
649373.334399999
 20
9494500.4091
 10
649156.865799999
 20
9494725.4934
 10
648933.127799999
 20
9494973.4629
 10
648606.041099999
 20
9495323.265
 10
648238.2696
 20
9495701.6199
 10
648141.278300001
 20
9495819.6382
 10
648112.8735
 20
9495836.6003
 10
648097.6615
 20
9495845.7544
 10
648085.5457
 20
9495857.8702
 10
648077.4686
 20
9495877.2554
 10
648058.3526
 20
9495910.6411
 10
648037.0826
 20
9495921.1415
 10
648001.543
 20
9495956.9503
 10
647982.965499999
 20
9495976.3356
 10
647969.2343
 20
9496003.5288
 10
647941.502600001
 20
9496029.3757
 10
647921.5789
 20
9496060.6075
 10
647903.001400002
 20
9496080.262
 10
647886.308499999
 20
9496097.7626
 10
647873.654299999
 20
9496115.8016
 10
647848.2111
 20
9496138.687
 10
647834.3453
 20
9496160.2261
 10
647814.9601
 20
9496177.4575
 10
647797.0676
 20
9496200.5549
 10
647778.0743
 20
9496224.0359
 10
647761.9199
 20
9496232.3823
 10
647741.457699999
 20
9496257.9601
 10
647711.747699999
 20
9496283.7044
 10
647643.0916
 20
9496362.0531
 10
647600.282600001
 20
9496410.7854
 10
647537.819000001
 20
9496476.7491
 10
647480.471
 20
9496552.6746
 10
647446.0083
 20
9496589.5604
 10
647398.352900001
 20
9496633.1772
 10
647309.5802
 20
9496744.0803
 10
647297.195199999
 20
9496771.5427
 10
647243.3473
 20
9496823.2367
 10
647229.017800001
 20
9496849.9512
 10
647203.888799999
 20
9496887.0465
 10
647177.3238
 20
9496904.0385
 10
647123.2366
 20
9496962.4335
 10
647063.4056
 20
9497033.7521
 10
647044.259699999
 20
9497053.3766
 10
647018.8913
 20
9497091.1898
 10
646883.6002
 20
9497252.0813
 10
646550.2245
 20
9497675.4155
 10
646314.744900001
 20
9497974.3953
 10
646283.397899999
 20
9498018.8255
 10
646271.476599999
 20
9498035.7224
 10
646238.621699999
 20
9498069.9545
 10
646185.098800001
 20
9498127.8539
 10
646134.2504
 20
9498197.4346
 10
646099.683599999
 20
9498233.4861
 10
646063.9141
 20
9498273.732
 10
646038.9433
 20
9498300.1796
 10
646028.467500001
 20
9498311.2749
 10
646005.7754
 20
9498331.8766
 10
645985.5838
 20
9498355.8082
 10
645965.494199999
 20
9498384.5002
 10
645943.853599999
 20
9498411.7356
 10
645896.4123
 20
9498455.55
 10
645846.4315
 20
9498522.0839
 10
645818.465000001
 20
9498544.6317
 10
645799.976099999
 20
9498559.5383
 10
645772.5083
 20
9498581.7797
 10
645761.213499999
 20
9498594.7654
 10
645739.660899999
 20
9498626.5381
 10
645725.8941
 20
9498634.4144
 10
645701.396800001
 20
9498650.3554
 10
645689.4318
 20
9498660.5719
 10
645682.703799999
 20
9498673.0825
 10
645669.4173
 20
9498692.7681
 10
645581.847600001
 20
9498791.9594
 10
645513.055800001
 20
9498855.4595
 10
645452.2015
 20
9498866.0429
 10
645416.264200001
 20
9498914.8642
 10
645301.388699999
 20
9498961.2931
 10
645212.849
 20
9498918.8677
 10
645160.6764
 20
9498923.6541
 10
645039.5784
 20
9499019.8624
 10
644952.138
 20
9499106.8142
 10
644915.2821
 20
9499123.0882
 10
644872.051599999
 20
9499145.2681
 10
644539.3872
 20
9499458.7107
 10
644446.7828
 20
9499561.8984
 10
644420.935800001
 20
9499573.8646
 10
644364.761800001
 20
9499628.0444
 10
644285.3867
 20
9499683.607
 10
644216.5949
 20
9499725.9404
 10
644177.054800001
 20
9499758.8948
 10
644147.8031
 20
9499770.9197
 10
644094.886300001
 20
9499792.0864
 10
644071.353600001
 20
9499820.4988
 10
644021.0956
 20
9499852.0896
 10
643983.761100001
 20
9499874.1074
 10
643928.2379
 20
9499912.3992
 10
643889.946099999
 20
9499941.5968
 10
643858.355300001
 20
9499975.5808
 10
643801.874799999
 20
9500019.1377
 10
643740.1293
 20
9500079.4474
 10
643615.9895
 20
9500162.5038
 10
643573.8685
 20
9500198.4024
 10
643501.911700001
 20
9500254.2624
 10
643371.435899999
 20
9500340.4899
 10
642793.1337
 20
9500789.5676
 10
642398.9037
 20
9501170.5683
 10
641920.860000001
 20
9501787.263
 10
641570.7562
 20
9502244.7788
 10
641319.401600001
 20
9502612.5504
 10
640986.025899999
 20
9503131.1347
 10
640631.4835
 20
9503755.5527
 10
640221.3785
 20
9504565.1793
 10
639747.773400001
 20
9505517.6812
 10
639284.7517
 20
9506528.3915
 10
639112.772199999
 20
9506978.1841
 10
639014.876100001
 20
9507271.8722
 10
638850.845300001
 20
9507676.4781
 10
638780.5687
 20
9507856.1303
 10
638504.2293
 20
9508732.3751
 10
638384.103499999
 20
9509021.9266
 10
638300.499699999
 20
9509235.0845
 10
638221.3632
 20
9509388.2518
 10
638219.195800001
 20
9509442.446
 10
638152.0207
 20
9509540.7558
 10
638131.166
 20
9509563.1684
 10
638112.114199999
 20
9509609.4362
 10
638006.811599999
 20
9509753.6688
 10
637935.9717
 20
9509821.3177
 10
637879.810399999
 20
9509883.8611
 10
637823.730899999
 20
9509940.2065
 10
637736.936099999
 20
9510012.961
 10
637685.2421
 20
9510085.0773
 10
637580.448800001
 20
9510158.5834
 10
637502.5887
 20
9510274.0971
 10
637416.432100001
 20
9510362.1683
 10
637373.672899999
 20
9510422.7971
 10
637333.4665
 20
9510431.0936
 10
637300.707399999
 20
9510471.8034
 10
637160.304
 20
9510510.7335
 10
637035.926499999
 20
9510567.013
 10
636890.605800001
 20
9510582.57
 10
636757.4826
 20
9510605.2615
 10
636645.5381
 20
9510532.6488
 10
636530.519
 20
9510628.2385
 10
636517.204499999
 20
9510798.7751
 10
636567.4754
 20
9510841.1085
 10
636619.948500001
 20
9510919.8927
 10
636663.4405
 20
9510994.0182
 10
636672.5171
 20
9511041.6702
 10
636692.939399999
 20
9511099.5335
 10
636721.303700001
 20
9511167.6078
 10
636749.667999999
 20
9511275.3923
 10
636802.992899999
 20
9511404.7336
 10
636852.914200001
 20
9511585.1307
 10
636821.146099999
 20
9511740.5672
 10
636776.897800001
 20
9511935.7137
 10
636677.055299999
 20
9512181.916
 10
636653.2293
 20
9512326.0068
 10
636639.6144
 20
9512586.9586
 10
636684.997399999
 20
9512633.4761
 10
636664.574999999
 20
9512790.0471
 10
636633.9416
 20
9512925.0613
 10
636549.983200001
 20
9513170.1291
 10
636500.1321
 20
9513352.1258
 10
636467.231
 20
9513405.3324
 10
636417.633600001
 20
9513424.4715
 10
636145.3489
 20
9513326.2312
 10
636119.8443
 20
9513325.5031
 10
636081.2644
 20
9513325.5665
 10
636042.668100001
 20
9513315.603
 10
636004.0827
 20
9513312.3241
 10
635971.3779
 20
9513314.8845
 10
635952.9157
 20
9513308.2302
 10
635934.453500001
 20
9513301.5759
 10
635900.882499999
 20
9513287.4262
 10
635871.611700001
 20
9513268.6032
 10
635853.603000001
 20
9513266.1586
 10
635823.588499999
 20
9513262.0842
 10
635777.253399999
 20
9513275.3558
 10
635761.212899999
 20
9513279.2733
 10
635675.263299999
 20
9513300.2647
 10
635623.560100001
 20
9513319.7996
 10
635499.8779
 20
9513366.5298
 10
635451.8993
 20
9513387.2264
 10
635403.920599999
 20
9513407.923
 10
635344.7149
 20
9513420.0986
 10
635328.2471
 20
9513416.1577
 10
635294.651100001
 20
9513408.1016
 10
635256.553500001
 20
9513396.6176
 10
635236.3894
 20
9513387.0117
 10
635217.654500001
 20
9513379.132
 10
635199.690399999
 20
9513347.5096
 10
635166.127899999
 20
9513337.7344
 10
635148.3593
 20
9513332.4272
 10
635107.210699999
 20
9513338.1114
 10
635026.629599999
 20
9513364.6433
 10
634951.1383
 20
9513400.7158
 10
634889.742900001
 20
9513437.3271
 10
634826.096899999
 20
9513476.7504
 10
634751.7504
 20
9513523.4934
 10
634731.474399999
 20
9513536.4457
 10
634715.7015
 20
9513544.897
 10
634701.0581
 20
9513554.4699
 10
634685.837299999
 20
9513557.8697
 10
634671.1157
 20
9513566.4959
 10
634562.4217
 20
9513630.1855
 10
634453.820299999
 20
9513674.9077
 10
634409.306
 20
9513725.1657
 10
634369.099600001
 20
9513747.6621
 10
634287.250799999
 20
9513782.1248
 10
634236.0355
 20
9513817.5448
 10
634188.489799999
 20
9513833.9783
 10
634126.0319
 20
9513862.5895
 10
634035.407800001
 20
9513897.0521
 10
633953.718600001
 20
9513923.8564
 10
633869.4765
 20
9513960.8718
 10
633817.1444
 20
9513988.3143
 10
633688.228499999
 20
9514047.0285
 10
633625.599799999
 20
9514110.3178
 10
633535.614
 20
9514130.7401
 10
633474.4901
 20
9514092.8442
 10
633432.156600002
 20
9514021.4065
 10
633434.8025
 20
9513886.4688
 10
633307.8022
 20
9513812.3853
 10
633246.947899999
 20
9513735.656
 10
633194.031200001
 20
9513690.6767
 10
633119.947700001
 20
9513632.4682
 10
633043.2184
 20
9513600.7182
 10
632896.4072
 20
9513602.0687
 10
632676.852699999
 20
9513632.361
 10
632461.7802
 20
9513722.9851
 10
632233.819300001
 20
9513667.5286
 10
632040.445500001
 20
9513703.9059
 10
631806.227099999
 20
9513801.5501
 10
631606.528000001
 20
9513904.9896
 10
631520.371399999
 20
9513947.7488
 10
631283.6002
 20
9514068.3681
 10
631064.1311
 20
9514211.9069
 10
630932.024199999
 20
9514289.767
 10
630688.422000001
 20
9514455.3241
 10
630645.662800001
 20
9514492.3395
 10
630598.101999999
 20
9514514.3826
 10
630531.425500001
 20
9514538.2897
 10
630200.767499999
 20
9514755.8208
 10
629789.130199999
 20
9515008.5469
 10
629684.5518
 20
9515100.7224
 10
629422.890900001
 20
9515271.7593
 10
629299.4513
 20
9515369.4667
 10
629112.224499999
 20
9515485.7957
 10
629005.1899
 20
9515588.7626
 10
628926.5313
 20
9515670.9139
 10
628727.9061
 20
9515758.0963
 10
628516.239
 20
9515832.1798
 10
628370.1887
 20
9515882.9799
 10
628251.655100001
 20
9515904.1466
 10
628204.1128
 20
9515870.7711
 10
628189.041099999
 20
9515803.5729
 10
628193.0939
 20
9515687.0555
 10
628147.569500005
 20
9515584.22430001
 10
628111.072899998
 20
9515517.72190001
 10
627917.926700005
 20
9515528.3052
 10
627691.623400007
 20
9515599.84330001
 10
627456.143800002
 20
9515660.69760001
 10
627141.288999999
 20
9515827.38540001
 10
626881.9968
 20
9516054.92750001
 10
626209.595100002
 20
9516581.79320001
 10
626175.557900001
 20
9516642.30370001
 10
626099.919699999
 20
9516653.64940001
 10
625802.637099996
 20
9516871.688
 10
625539.794300007
 20
9517039.98300001
 10
625265.605900003
 20
9517210.16900001
 10
625204.535100006
 20
9517279.95080001
 10
625106.765700002
 20
9517365.2273
 10
624790.455200009
 20
9517542.9566
 10
624504.920999999
 20
9517777.43500002
 10
623799.594799998
 20
9518327.70290001
 10
623468.865000001
 20
9518581.7034
 10
623235.395200002
 20
9518780.98900001
 10
622568.660899995
 20
9519311.63840001
 10
622349.675300001
 20
9519481.2886
 10
622193.570800005
 20
9519618.87220001
 10
622083.506700004
 20
9519716.4394
 10
621631.568500008
 20
9520013.3194
 10
621329.778900006
 20
9520230.08410001
 10
620830.963899999
 20
9520690.4368
 10
620309.733700005
 20
9521209.02120001
 10
620184.579400005
 20
9521344.7962
 10
619934.024600008
 20
9521552.9802
 10
619662.244000008
 20
9521784.3408
 10
619439.111300007
 20
9521984.782
 10
619301.07160001
 20
9522107.6941
 10
619021.210300003
 20
9522383.7735
 10
618276.347200007
 20
9523140.72220001
 10
618047.541700006
 20
9523386.5464
 10
617848.491200013
 20
9523510.80340001
 10
617610.9783
 20
9523701.40120001
 10
617061.854
 20
9524176.41950001
 10
616707.514700004
 20
9524469.2245
 10
616421.98050001
 20
9524701.812
 10
616213.975499997
 20
9524868.216
 10
616115.645800016
 20
9524955.19990001
 10
616021.098099998
 20
9525036.511
 10
615953.023699999
 20
9525081.89390001
 10
615724.218199998
 20
9525274.7713
 10
615396.411400008
 20
9525540.25900001
 10
614989.8561
 20
9525943.03240001
 10
614785.632900001
 20
9526171.83790001
 10
614668.393700007
 20
9526285.2952
 10
614330.393099997
 20
9526635.7402
 10
613880.345800003
 20
9527119.8247
 10
613536.192
 20
9527496.1247
 10
613292.969600004
 20
9527757.47180001
 10
613100.092200003
 20
9527982.49540001
 10
612904.031399995
 20
9528207.2643
 10
612792.906100001
 20
9528331.61880001
 10
612643.795299998
 20
9528514.48800001
 10
612468.140500005
 20
9528730.4754
 10
612343.11360001
 20
9528876.6615
 10
612271.675900014
 20
9528966.62
 10
612173.779900011
 20
9529011.5993
 10
612060.008800012
 20
9528982.4951
 10
611946.237799999
 20
9528971.9117
 10
611848.341800007
 20
9529014.24510001
 10
611641.966300003
 20
9529165.0579
 10
611165.715400006
 20
9529522.2461
 10
611025.100900001
 20
9529612.9652
 10
610925.309900002
 20
9529658.3247
 10
610762.015600007
 20
9529677.9805
 10
610631.261400004
 20
9529696.8699
 10
610525.422400007
 20
9529728.6215
 10
610277.457000003
 20
9529838.99640001
 10
609941.796500001
 20
9530047.6502
 10
609742.214600005
 20
9530221.5284
 10
609620.545599997
 20
9530347.74780001
 10
609476.907100008
 20
9530489.87430001
 10
609340.828499998
 20
9530636.5368
 10
609135.0809
 20
9530862.45010001
 10
608860.504700006
 20
9531128.46660001
 10
608759.201699998
 20
9531238.84150001
 10
608509.724300002
 20
9531532.1665
 10
608350.54310001
 20
9531694.4796
 10
608257.938699998
 20
9531792.3757
 10
608035.6883
 20
9532009.3344
 10
607874.292099999
 20
9532194.5431
 10
607765.812799999
 20
9532334.77260001
 10
607660.157099999
 20
9532463.7168
 10
607540.916500011
 20
9532623.169
 10
607403.332900006
 20
9532781.91930001
 10
607268.395100008
 20
9532940.6696
 10
607128.165700004
 20
9533051.7949
 10
606964.123699999
 20
9533096.7741
 10
606829.185899999
 20
9533102.0658
 10
606731.2899
 20
9533131.17
 10
606654.5605
 20
9533181.441
 10
606601.643799999
 20
9533213.19100001
 10
606531.708000011
 20
9533253.47720001
 10
606384.685000006
 20
9533356.0663
 10
606278.851500006
 20
9533459.25400001
 10
606198.0131
 20
9533517.7554
 10
606125.392800002
 20
9533575.6709
 10
606022.205100008
 20
9533689.442
 10
605889.913200001
 20
9533834.9631
 10
605831.704700006
 20
9533927.5674
 10
605731.162900004
 20
9534017.52600001
 10
605596.367199997
 20
9534115.58690001
 10
605509.387400004
 20
9534207.5076
 10
605371.796800006
 20
9534363.24200001
 10
605216.062399998
 20
9534549.2161
 10
604965.072999997
 20
9534822.8853
 10
604807.826700006
 20
9535030.0271
 10
604578.004999996
 20
9535302.18430001
 10
604286.192100003
 20
9535643.8928
 10
604089.634100008
 20
9535832.8908
 10
603934.277700003
 20
9535970.8594
 10
603818.610900003
 20
9536052.50650001
 10
603649.646599999
 20
9536102.402
 10
603549.855700008
 20
9536199.925
 10
603443.260799998
 20
9536287.24210001
 10
603345.737800016
 20
9536366.6213
 10
603275.430499999
 20
9536447.13440001
 10
603214.195199999
 20
9536509.5038
 10
603160.897700011
 20
9536555.99730001
 10
603097.394400003
 20
9536631.9745
 10
603030.489099998
 20
9536686.406
 10
602983.995499998
 20
9536741.97140001
 10
602948.841900002
 20
9536782.79500001
 10
602895.544499999
 20
9536847.4323
 10
602863.792800004
 20
9536887.1219
 10
602822.9692
 20
9536930.2134
 10
602771.939700004
 20
9536995.9848
 10
602693.694500001
 20
9537082.1679
 10
602640.397100001
 20
9537159.2791
 10
602583.697700006
 20
9537223.9164
 10
602523.596300002
 20
9537288.5537
 10
602463.494900009
 20
9537355.45900002
 10
602395.455599996
 20
9537449.58010001
 10
602258.243099997
 20
9537612.8744
 10
602212.757500011
 20
9537667.4318
 10
602172.437900002
 20
9537723.8792
 10
602021.239500001
 20
9537856.9338
 10
601866.009100005
 20
9538016.1962
 10
601795.449800002
 20
9538078.69150001
 10
601724.890599997
 20
9538135.13900001
 10
601614.011700005
 20
9538246.0178
 10
601429.029300002
 20
9538449.30570001
 10
600972.930400005
 20
9538866.93940001
 10
600741.0928
 20
9539086.6811
 10
600376.200500009
 20
9539423.3496
 10
600261.289699998
 20
9539544.3084
 10
600186.698500006
 20
9539635.02740001
 10
600061.707800003
 20
9539751.9542
 10
599944.780999999
 20
9539836.62530001
 10
599848.013999998
 20
9539927.3444
 10
599787.534599998
 20
9539999.91970001
 10
599729.071200003
 20
9540068.4629
 10
599668.591900008
 20
9540122.8944
 10
599551.66510001
 20
9540239.8212
 10
599436.754299999
 20
9540338.60410001
 10
599313.779499997
 20
9540457.54690001
 10
599144.437299998
 20
9540600.68140001
 10
598821.880599999
 20
9540796.2314
 10
598682.778100001
 20
9540923.23810001
 10
598243.294600002
 20
9541326.4339
 10
598124.351899995
 20
9541451.4246
 10
597965.089500006
 20
9541648.99060001
 10
597694.948300006
 20
9541973.5632
 10
597604.229300003
 20
9542108.63380001
 10
596620.431400002
 20
9543414.98830001
 10
596086.196999998
 20
9544213.316
 10
595453.179499997
 20
9545229.36950001
 10
595017.728000003
 20
9546035.76110001
 10
594888.516199998
 20
9546304.80050001
 10
594809.669
 20
9546437.40720001
 10
594714.053000005
 20
9546547.38040001
 10
594655.303400001
 20
9546550.2203
 10
594590.811100003
 20
9546529.3843
 10
594534.748000005
 20
9546504.6454
 10
594444.734737256
 20
9546464.9236955
 10
594399.974536619
 20
9546487.71380389
 10
594357.974351693
 20
9546543.27406157
 10
594339.074271947
 20
9546603.78433958
 10
594365.524399111
 20
9546677.86467507
 10
594415.794628532
 20
9546693.73474258
 10
594426.38468251
 20
9546754.59501929
 10
594423.734681915
 20
9546871.00555083
 10
594459.724848636
 20
9546907.47571376
 10
594512.375089837
 20
9546933.19582598
 10
594517.755116335
 20
9546954.73592376
 10
594512.975097363
 20
9546982.25604984
 10
594454.934832333
 20
9546962.51596543
 10
594449.554813044
 20
9547014.56620352
 10
594419.64467872
 20
9547027.36626487
 10
594389.734547592
 20
9547072.83647534
 10
594330.504285001
 20
9547133.26675697
 10
594297.594138925
 20
9547164.97690493
 10
594277.854052008
 20
9547191.30702704
 10
594250.323930198
 20
9547221.817169
 10
594226.993827069
 20
9547248.7472942
 10
594210.243755349
 20
9547291.81749244
 10
594198.863706787
 20
9547322.6976345
 10
594186.00365044
 20
9547342.71772713
 10
594164.153554047
 20
9547369.96785365
 10
594125.15338208
 20
9547419.44808332
 10
594093.403242798
 20
9547467.0683038
 10
594035.192981727
 20
9547496.17844236
 10
593982.272746715
 20
9547546.44867699
 10
593932.00252294
 20
9547588.77887513
 10
593873.792263412
 20
9547633.75908612
 10
593775.901827329
 20
9547713.12945797
 10
593630.381179403
 20
9547834.84002774
 10
593590.901005948
 20
9547891.90029206
 10
593385.830099257
 20
9548130.19139981
 10
593229.509412422
 20
9548357.11245096
 10
593025.288511712
 20
9548619.32366787
 10
592934.518112986
 20
9548752.94428672
 10
592715.167149087
 20
9549073.14576994
 10
592392.365726739
 20
9549507.27778342
 10
592104.944464565
 20
9549940.92979142
 10
591968.793867424
 20
9550155.24078324
 10
591847.773335987
 20
9550339.29163544
 10
591653.9324819
 20
9550605.03286773
 10
591521.641900575
 20
9550803.47378678
 10
591341.731102115
 20
9550991.32466199
 10
591254.410718452
 20
9551123.61527461
 10
591185.990420598
 20
9551256.61588869
 10
591100.96004421
 20
9551356.45635287
 10
590997.769581227
 20
9551412.01661645
 10
590934.269285091
 20
9551327.34623563
 10
590913.099181287
 20
9551245.3258629
 10
590868.118975691
 20
9551229.45579464
 10
590817.848752327
 20
9551279.72602904
 10
590778.158576969
 20
9551329.99626245
 10
590770.228548222
 20
9551406.72661375
 10
590846.958903135
 20
9551478.15693286
 10
590918.389234261
 20
9551552.24726462
 10
590928.979288304
 20
9551615.74755375
 10
590892.169130992
 20
9551718.77802796
 10
590812.238780458
 20
9551848.15862665
 10
590759.638548517
 20
9551920.01895995
 10
590691.638245475
 20
9551978.98923581
 10
590645.108041076
 20
9552050.91956886
 10
590569.137704634
 20
9552139.61998131
 10
590507.437431443
 20
9552212.37031954
 10
590459.437221274
 20
9552294.18069788
 10
590411.447010801
 20
9552372.221059
 10
590341.596700489
 20
9552443.89139306
 10
590301.156523547
 20
9552514.40171907
 10
590267.726376903
 20
9552568.76197062
 10
590220.51616739
 20
9552619.63220752
 10
590201.366083087
 20
9552647.62233722
 10
590165.235924091
 20
9552700.91258414
 10
590129.74576814
 20
9552755.97283909
 10
590090.31559299
 20
9552796.84302956
 10
590053.205429632
 20
9552851.35328215
 10
590003.455210307
 20
9552920.87360451
 10
589913.564814
 20
9553046.56418735
 10
589847.414521295
 20
9553127.76456464
 10
589825.664424911
 20
9553152.97468188
 10
589784.954244671
 20
9553201.99490973
 10
589766.714163954
 20
9553224.40501385
 10
589750.584093409
 20
9553253.10514653
 10
589673.163750543
 20
9553345.32557524
 10
589499.382968141
 20
9553415.45591194
 10
589428.372648213
 20
9553441.8360391
 10
589386.45245983
 20
9553462.54613767
 10
589295.072047667
 20
9553491.56627878
 10
589216.101691639
 20
9553518.29640827
 10
589144.921371973
 20
9553556.00658722
 10
589045.140923067
 20
9553600.12679812
 10
588943.920469874
 20
9553668.90712186
 10
588873.380153313
 20
9553708.9073112
 10
588772.619701913
 20
9553774.74762145
 10
588717.059454054
 20
9553822.37784429
 10
588698.679371881
 20
9553836.2279093
 10
588664.139223287
 20
9553925.55832082
 10
588444.538241048
 20
9554086.95907881
 10
588288.427549449
 20
9554274.8099519
 10
587989.446219177
 20
9554573.79134611
 10
587963.886112122
 20
9554672.51179979
 10
587891.555787927
 20
9554719.31202036
 10
587876.665722547
 20
9554743.78213359
 10
587597.864497533
 20
9555195.56422467
 10
587324.073285
 20
9555536.71580951
 10
587156.012543699
 20
9555780.29693863
 10
586937.961576872
 20
9556041.95815498
 10
586740.610705669
 20
9556322.68945669
 10
586619.540173786
 20
9556524.27038958
 10
586277.588662416
 20
9556994.73257222
 10
586221.577916541
 20
9557041.05365845
 10
586186.619940646
 20
9557049.22026105
 10
586221.577916534
 20
9557041.05365845
 10
586208.758355845
 20
9557063.54289314
 10
586187.638263194
 20
9557100.57306443
 10
586095.027847379
 20
9557156.13332686
 10
586060.637698206
 20
9557235.50369302
 10
586004.207445941
 20
9557281.86391014
 10
585856.906792072
 20
9557455.11471586
 10
585843.656735399
 20
9557494.81489866
 10
585721.966192321
 20
9557605.92541781
 10
585596.455637326
 20
9557778.69621941
 10
585494.425183458
 20
9557889.02673326
 10
585391.234727175
 20
9558031.90739614
 10
585317.504398266
 20
9558101.49772108
 10
585232.484023737
 20
9558235.63834237
 10
585146.103641743
 20
9558355.46889832
 10
584960.392816303
 20
9558566.45988017
 10
584893.822521881
 20
9558658.97030937
 10
584830.32224234
 20
9558762.15078713
 10
584682.971588685
 20
9558945.44163888
 10
584547.210985211
 20
9559100.82236189
 10
584319.859974395
 20
9559359.70356662
 10
584208.549479053
 20
9559481.82413528
 10
584118.589079091
 20
9559585.01461543
 10
583959.278375055
 20
9559817.18569201
 10
583759.66748976
 20
9560072.91687996
 10
583589.416736924
 20
9560317.90801622
 10
583302.235460962
 20
9560663.15962163
 10
583105.524588387
 20
9560917.52080315
 10
582631.622481672
 20
9561482.08342884
 10
582550.882122988
 20
9561581.73389206
 10
582173.900453548
 20
9562111.78635156
 10
582091.790090937
 20
9562239.77694472
 10
581824.648900349
 20
9562529.82829583
 10
581464.817299382
 20
9562955.81027741
 10
581382.786936443
 20
9563077.52084184
 10
581311.356615465
 20
9563125.141066
 10
581176.416015757
 20
9563294.48185307
 10
581001.795242341
 20
9563545.83301919
 10
580922.094888039
 20
9563645.41348208
 10
580838.294518412
 20
9563785.01412866
 10
580723.994012315
 20
9563952.68490641
 10
580659.41372326
 20
9564010.39517621
 10
580592.13342023
 20
9564047.98535406
 10
580509.663048286
 20
9564088.2255453
 10
580454.102796331
 20
9564098.81559845
 10
580417.062627328
 20
9564093.51557725
 10
580377.372445828
 20
9564082.93553208
 10
580335.042254959
 20
9564104.1056326
 10
580214.701718699
 20
9564241.09627027
 10
580180.041564395
 20
9564282.38646234
 10
580124.171312924
 20
9564316.01662107
 10
580050.940981331
 20
9564336.23671979
 10
579993.120718041
 20
9564334.36671601
 10
579965.15058924
 20
9564316.15663489
 10
579912.150348443
 20
9564320.99666145
 10
579862.05012171
 20
9564336.39673616
 10
579835.080000479
 20
9564354.65682206
 10
579738.709561985
 20
9564355.69683478
 10
579690.519342359
 20
9564351.89682135
 10
579621.139027325
 20
9564360.59686694
 10
579544.068679115
 20
9564391.36701428
 10
579489.138429445
 20
9564395.25703662
 10
579424.528131695
 20
9564350.20683552
 10
579374.597894675
 20
9564231.10629391
 10
579292.577517721
 20
9564186.12609455
 10
579117.956723921
 20
9564196.70615735
 10
579074.586526793
 20
9564199.62617428
 10
578943.525933052
 20
9564232.58633602
 10
578897.275723675
 20
9564246.06640157
 10
578797.065269908
 20
9564273.97653763
 10
578676.09472128
 20
9564297.24665411
 10
578633.764529934
 20
9564313.12673032
 10
578578.204278375
 20
9564328.99680756
 10
578382.503393281
 20
9564397.11713559
 10
578317.71310167
 20
9564437.23732468
 10
578202.792583284
 20
9564494.36759577
 10
578008.211705541
 20
9564591.08805469
 10
577980.951582729
 20
9564606.6281281
 10
577869.121078259
 20
9564662.37839259
 10
577562.199695393
 20
9564836.99921747
 10
577416.679037731
 20
9564895.20949589
 10
577318.778593826
 20
9564916.37960075
 10
577305.558537889
 20
9564969.28984427
 10
577252.638298499
 20
9564987.80993338
 10
577191.778021276
 20
9564985.16992614
 10
577117.697688108
 20
9565035.44016243
 10
576966.887008201
 20
9565117.46055034
 10
576788.056204448
 20
9565246.25115479
 10
576694.365782881
 20
9565307.96144505
 10
576459.804727404
 20
9565462.44217164
 10
576346.634218129
 20
9565536.98252222
 10
576102.833120955
 20
9565697.5532774
 10
575652.991096778
 20
9565999.64469737
 10
575549.950634544
 20
9566087.5351083
 10
575528.180536885
 20
9566106.11519517
 10
575445.650166639
 20
9566176.50552427
 10
575440.763478048
 20
9566180.66887707
 10
575434.060114604
 20
9566185.89556822
 10
575358.219773893
 20
9566244.58584317
 10
575322.989615624
 20
9566271.84597088
 10
575179.138969342
 20
9566383.16649237
 10
574760.257088898
 20
9566728.77810924
 10
574496.755905593
 20
9566943.01911179
 10
574207.274607933
 20
9567210.32035958
 10
573865.963077508
 20
9567522.53181724
 10
573590.791846082
 20
9567808.27314846
 10
573360.610815998
 20
9568049.0542701
 10
573069.569513385
 20
9568353.31568747
 10
572945.208958296
 20
9568504.13638856
 10
572855.258553139
 20
9568564.98667441
 10
572741.478042802
 20
9568670.81716836
 10
572585.37734482
 20
9568845.44798104
 10
572207.02565165
 20
9569252.90987832
 10
571947.734489423
 20
9569509.55107491
 10
571601.12293996
 20
9569911.7229456
 10
571360.351865309
 20
9570215.99435934
 10
571019.040336197
 20
9570573.17602329
 10
570000.935795352
 20
9571940.84237385
 10
569328.352798267
 20
9572904.16684422
 10
568566.349407178
 20
9574081.5623044
 10
568195.927757237
 20
9574642.48490649
 10
567920.76652938
 20
9575031.41671212
 10
567500.904658669
 20
9575671.86968329
 10
567427.674332031
 20
9575779.23018157
 10
567277.823668605
 20
9576071.23153343
 10
567060.86270116
 20
9576396.67304363
 10
566973.402313843
 20
9576567.10383272
 10
566708.971135836
 20
9576984.04576674
 10
566587.760598355
 20
9577212.45682466
 10
566498.74019901
 20
9577313.79729646
 10
566422.451727876
 20
9577330.24580493
 10
566422.354273472
 20
9577330.24774576
 10
566422.352732559
 20
9577330.24411382
 10
566422.338422851
 20
9577330.27023455
 10
566420.569849364
 20
9577417.96778053
 10
566431.159902599
 20
9577489.39810807
 10
566431.159904326
 20
9577514.53322357
 10
566431.159906053
 20
9577539.66833908
 10
566420.57485892
 20
9577556.86841885
 10
566409.989811787
 20
9577574.06849862
 10
566372.949647968
 20
9577650.79885379
 10
566306.799353084
 20
9577753.98933256
 10
566286.515820043
 20
9577774.27286901
 10
566245.949079483
 20
9577814.83961638
 10
566203.613889578
 20
9577863.78984425
 10
566161.278699674
 20
9577912.74007211
 10
565985.477911544
 20
9578123.83105429
 10
565849.607306128
 20
9578342.13206691
 10
565739.236815906
 20
9578517.96287987
 10
565739.236814187
 20
9578517.96288261
 10
565662.926473283
 20
9578628.56339618
 10
565620.476287543
 20
9578747.53394593
 10
565572.346071439
 20
9578801.51419733
 10
565501.645754391
 20
9578886.56459309
 10
565163.708261783
 20
9579376.63975833
 10
565039.443689145
 20
9579558.44771309
 10
564925.673178472
 20
9579690.73832895
 10
564851.592848495
 20
9579815.08890567
 10
564717.952250998
 20
9580006.91979663
 10
564616.111795143
 20
9580145.82044213
 10
564550.701506485
 20
9580297.09114208
 10
564295.280361352
 20
9580620.55264654
 10
564018.149128479
 20
9581119.49495952
 10
563876.848498032
 20
9581347.50601755
 10
563639.497442692
 20
9581788.72806267
 10
563531.316959702
 20
9581960.86886162
 10
563531.315938403
 20
9581960.87048674
 10
563423.136476696
 20
9582133.00966059
 10
563338.176097468
 20
9582270.43029833
 10
563263.050063386
 20
9582404.19316852
 10
563136.296628021
 20
9582635.62768799
 10
563134.57948996
 20
9582638.79075854
 10
563132.291202754
 20
9582643.00591983
 10
563094.724325496
 20
9582712.20634451
 10
563059.061775902
 20
9582777.89888426
 10
562978.334495865
 20
9582926.60334069
 10
562977.716368989
 20
9582927.67257598
 10
562969.954067427
 20
9582941.09979798
 10
562969.158380721
 20
9582942.4761761
 10
562964.112275254
 20
9582951.20492463
 10
562880.444059479
 20
9583095.93412617
 10
562834.138851541
 20
9583152.81939093
 10
562787.833643602
 20
9583209.70465568
 10
562748.148465991
 20
9583267.9149261
 10
562708.463288379
 20
9583326.12519652
 10
562686.433603391
 20
9583334.95881263
 10
562668.69172061
 20
9583342.33337594
 10
562640.116663438
 20
9583378.0521974
 10
562618.518801622
 20
9583433.30254158
 10
562605.985345149
 20
9583465.36487209
 10
562520.612446536
 20
9583585.41640183
 10
562462.402188143
 20
9583704.47695349
 10
562404.19192975
 20
9583823.53750515
 10
562295.711442382
 20
9583955.82812094
 10
562234.861172213
 20
9584080.18869719
 10
562138.550738929
 20
9584188.86920356
 10
562070.810439078
 20
9584342.11991323
 10
561888.709626444
 20
9584653.03135592
 10
561779.769142805
 20
9584879.23240408
 10
561705.818814473
 20
9585032.77311556
 10
561523.858025945
 20
9585410.57482592
 10
561523.858006477
 20
9585410.57486634
 10
561506.447928964
 20
9585443.63501964
 10
561351.14723585
 20
9585712.66626806
 10
561182.946488778
 20
9586049.8078293
 10
561182.946487958
 20
9586049.80783094
 10
561131.568488396
 20
9586137.87583459
 10
561097.14610484
 20
9586196.85851344
 10
561023.065777023
 20
9586371.47932216
 10
560911.935281382
 20
9586572.57025512
 10
560849.335001304
 20
9586672.07071724
 10
560820.594876001
 20
9586770.0611703
 10
560793.819756279
 20
9586813.95387411
 10
560713.494397116
 20
9586945.63198555
 10
560653.804133324
 20
9587093.52267037
 10
560591.23385521
 20
9587223.22327162
 10
560522.993551492
 20
9587358.66389966
 10
560451.793233593
 20
9587484.05448162
 10
560385.882937803
 20
9587576.07490956
 10
560375.582895272
 20
9587649.8052498
 10
560367.175543962
 20
9587666.66480047
 10
560336.212720065
 20
9587728.7556159
 10
560275.542447324
 20
9587806.44597752
 10
560275.582450993
 20
9587862.49623569
 10
560254.842358946
 20
9587908.21644758
 10
560234.1022669
 20
9587953.93665947
 10
560192.742082951
 20
9588039.07705423
 10
560136.701832073
 20
9588128.31746879
 10
560015.301293041
 20
9588393.79869927
 10
559893.290751863
 20
9588670.71998257
 10
559882.708386866
 20
9588699.16212597
 10
559850.960565175
 20
9588784.49050933
 10
559819.210424947
 20
9588866.51088918
 10
559811.762043205
 20
9588889.74265458
 10
559808.149183374
 20
9588900.97976873
 10
559771.580216099
 20
9589014.67157475
 10
559737.180066012
 20
9589133.74212547
 10
559715.389970828
 20
9589207.51246671
 10
559660.929728991
 20
9589327.92302486
 10
559626.904579561
 20
9589430.31349875
 10
559597.329450104
 20
9589526.37394321
 10
559587.299406625
 20
9589565.90412598
 10
559577.269363146
 20
9589605.43430875
 10
559570.379344872
 20
9589821.5153049
 10
559556.544284153
 20
9589863.90050107
 10
559555.242613036
 20
9589878.92223026
 10
559552.63926904
 20
9589908.96570898
 10
559543.379230074
 20
9589964.53596565
 10
559534.119189711
 20
9589997.60611861
 10
559532.799185293
 20
9590024.06624064
 10
559527.499163217
 20
9590059.77640552
 10
559524.707480909
 20
9590073.74749224
 10
559524.707480908
 20
9590073.74749224
 10
559514.269107448
 20
9590137.83676609
 10
559515.329113299
 20
9590155.29684526
 10
559516.91912226
 20
9590181.48696708
 10
559538.089221197
 20
9590214.56711825
 10
559913.57995749
 20
9590413.07252237
 10
559913.57995829
 20
9590413.07252279
 10
559917.75997806
 20
9590423.29256964
 10
559921.939997831
 20
9590433.51261648
 10
559916.37997307
 20
9590444.71933515
 10
559913.59996069
 20
9590450.32269448
 10
559900.629901384
 20
9590451.53270085
 10
559900.629901384
 20
9590451.53270085
 10
559885.469830952
 20
9590434.78262459
 10
559651.859931222
 20
9590317.30223911
 10
559202.677677269
 20
9590074.24649208
 10
559170.317528425
 20
9590062.42643958
 10
559116.077282154
 20
9590095.4965953
 10
559106.817241301
 20
9590120.63671171
 10
559101.517218173
 20
9590139.15679739
 10
559094.907188633
 20
9590151.06685267
 10
559056.547013605
 20
9590160.32689769
 10
559007.596789537
 20
9590160.32690067
 10
558940.12648246
 20
9590189.42703888
 10
558797.255833038
 20
9590264.83739508
 10
558700.675401658
 20
9590442.10821793
 10
558700.675401654
 20
9590442.10821794
 10
558543.254699053
 20
9590741.07960542
 10
558455.934304939
 20
9590835.01004362
 10
558385.823985559
 20
9590861.47016981
 10
558385.823985379
 20
9590861.47016986
 10
558291.893557119
 20
9590887.93029742
 10
558271.803665519
 20
9590893.1706617
 10
558143.287025064
 20
9590928.9014921
 10
557771.99118546
 20
9591032.13099317
 10
557722.601914001
 20
9591054.61733239
 10
557623.820511086
 20
9591099.59131294
 10
557562.965234105
 20
9591127.37644463
 10
557502.109957125
 20
9591155.16157632
 10
557466.389793662
 20
9591156.48158452
 10
557459.779761595
 20
9591126.05144464
 10
557475.649833563
 20
9591114.15138884
 10
557475.649833563
 20
9591114.15138884
 10
557521.960045745
 20
9591116.79139827
 10
557590.750359122
 20
9591090.33127223
 10
557801.091316335
 20
9590992.4408085
 10
557965.172528126
 20
9590946.77574853
 10
558160.182700164
 20
9590885.35471771
 10
558181.313628941
 20
9590815.1613946
 10
558181.313628945
 20
9590815.1613946
 10
558250.519504766
 20
9590735.20935984
 10
558320.520520958
 20
9590627.38545158
 10
558320.520520962
 20
9590627.38545158
 10
558298.198832661
 20
9590603.14961839
 10
558251.606076867
 20
9590552.56140832
 10
558251.606076868
 20
9590552.56140832
 10
558331.053760687
 20
9590468.82837879
 10
558358.833886584
 20
9590447.65827955
 10
558372.979201856
 20
9590428.83447731
 10
558380.05189007
 20
9590419.42253549
 10
558420.533221062
 20
9590382.11621085
 10
558465.777061584
 20
9590344.80988621
 10
558502.044484392
 20
9590309.73761986
 10
558480.420902698
 20
9590247.67892017
 10
558441.38935969
 20
9590135.66016027
 10
558403.924018281
 20
9590028.13632799
 10
558350.562548612
 20
9589881.3543532
 10
558294.452853359
 20
9589726.4814387
 10
558271.507542461
 20
9589659.35926367
 10
558253.259197003
 20
9589633.71637127
 10
558052.400451949
 20
9589340.98117386
 10
557474.14565669
 20
9589667.90853522
 10
557401.374063676
 20
9589932.26493414
 10
557373.728733934
 20
9589924.44488183
 10
557398.577509551
 20
9589837.03652203
 10
557407.812598774
 20
9589840.4066734
 10
557421.409507347
 20
9589797.84532536
 10
557452.592846941
 20
9589657.89726187
 10
558045.832336981
 20
9589322.91309975
 10
558033.77228074
 20
9589305.3830197
 10
558052.146561926
 20
9589218.57444615
 10
558024.992230304
 20
9589133.86222992
 10
558016.252859815
 20
9589104.92692426
 10
558070.528458281
 20
9589084.01486367
 10
558097.912888069
 20
9589097.50864067
 10
558122.437852559
 20
9589106.90215048
 10
558169.351815343
 20
9589061.76899629
 10
558188.712971928
 20
9589006.74163442
 10
558182.092938862
 20
9588960.43142145
 10
558157.827165757
 20
9588892.35833724
 10
558113.326591732
 20
9588922.00634483
 10
558111.555708812
 20
9588918.80733053
 10
558155.999157582
 20
9588887.44556526
 10
558154.761443713
 20
9588883.46583914
 10
558125.665646918
 20
9588848.96218482
 10
558089.083684237
 20
9588823.30825277
 10
558058.02934442
 20
9588805.47082365
 10
558051.174313762
 20
9588814.83936554
 10
558031.675559889
 20
9588800.9008032
 10
558035.579119014
 20
9588792.96039269
 10
558001.44677886
 20
9588771.73836028
 10
557993.24216404
 20
9588787.59061867
 10
557985.10895579
 20
9588800.52948904
 10
557987.079777104
 20
9588801.81480729
 10
557980.538935351
 20
9588812.8399816
 10
557973.998093598
 20
9588809.18396525
 10
557980.338996957
 20
9588798.3301667
 10
557982.738257687
 20
9588799.70117284
 10
557989.421912579
 20
9588788.33324699
 10
557999.333144406
 20
9588770.31022889
 10
557997.362323092
 20
9588769.31053692
 10
557973.141970322
 20
9588754.14048352
 10
557955.533739676
 20
9588781.26889727
 10
557886.781019651
 20
9588766.66348951
 10
557864.946796959
 20
9588815.7268269
 10
557843.406698193
 20
9588812.53681347
 10
557865.441475962
 20
9588728.61037234
 10
557819.171262997
 20
9588707.87027954
 10
557810.70002171
 20
9588705.13046682
 10
557781.68109072
 20
9588695.90022663
 10
557747.380932864
 20
9588680.74015884
 10
557666.010558009
 20
9588638.45996889
 10
557599.000249383
 20
9588604.95981853
 10
557547.940014318
 20
9588581.02971131
 10
557524.007752761
 20
9588571.7736115
 10
557488.109739168
 20
9588557.88960826
 10
557407.539369313
 20
9588537.94952117
 10
557339.389057739
 20
9588542.38954566
 10
557297.058864199
 20
9588545.03956037
 10
557261.338701294
 20
9588554.29960514
 10
557261.338701294
 20
9588554.29960514
 10
557233.708574766
 20
9588552.69959939
 10
557207.098452709
 20
9588547.68957788
 10
557188.445033781
 20
9588543.64956036
 10
557179.118324317
 20
9588541.62955161
 10
557097.297947484
 20
9588500.05936493
 10
557044.387704757
 20
9588489.47931929
 10
556980.887415433
 20
9588510.6394205
 10
556955.154552776
 20
9588514.02469476
 10
556929.421690119
 20
9588517.40996902
 10
556918.132945054
 20
9588520.94841635
 10
556884.26670986
 20
9588531.56375835
 10
556839.816620927
 20
9588539.89815003
 10
556796.160283582
 20
9588537.51689526
 10
556763.865906524
 20
9588515.10598065
 10
556733.49628289
 20
9588501.37939234
 10
556683.226051003
 20
9588469.62924901
 10
556660.735947362
 20
9588457.06419245
 10
556638.245843721
 20
9588444.49913588
 10
556621.200764707
 20
9588427.04405646
 10
556604.155685694
 20
9588409.58897704
 10
556577.395561195
 20
9588374.37881641
 10
556549.925433123
 20
9588333.47862959
 10
556459.655019078
 20
9588316.16855511
 10
556351.38452245
 20
9588295.05846416
 10
556297.144274033
 20
9588291.06844893
 10
556228.231022295
 20
9588290.26327557
 10
556181.399678596
 20
9588300.58204621
 10
556139.727720221
 20
9588313.67894742
 10
556200.449716712
 20
9588516.08560238
 10
556177.694571886
 20
9588520.58280669
 10
556168.988259634
 20
9588508.74705362
 10
556127.146043091
 20
9588518.17997169
 10
556124.320243227
 20
9588505.3084898
 10
556135.483548254
 20
9588500.6503706
 10
556168.973170791
 20
9588486.67613508
 10
556107.745375349
 20
9588299.43299321
 10
556090.569554826
 20
9588294.89430488
 10
556083.9384437
 20
9588256.61818891
 10
556048.223133019
 20
9588255.31829864
 10
555982.082830089
 20
9588250.0282781
 10
555833.912153347
 20
9588271.19838416
 10
555712.201597831
 20
9588295.00850084
 10
555639.44126529
 20
9588301.61853547
 10
555612.321141541
 20
9588307.57106445
 10
555530.960770293
 20
9588325.42865137
 10
555407.930208644
 20
9588347.92876206
 10
555275.639604836
 20
9588374.37889144
 10
555152.300744623
 20
9588418.05728125
 10
555057.358610865
 20
9588459.04929392
 10
555048.397221182
 20
9588467.19909388
 10
555030.474352333
 20
9588483.49877517
 10
555049.575524458
 20
9588527.70019196
 10
555038.413201489
 20
9588538.25162375
 10
555038.413201488
 20
9588538.25162375
 10
555038.413201488
 20
9588538.25162375
 10
555017.748226246
 20
9588496.49188292
 10
555001.148329979
 20
9588501.67322664
 10
554997.828340949
 20
9588502.70949844
 10
555080.578413684
 20
9588744.07313484
 10
555070.603368263
 20
9588748.06315379
 10
555060.628322842
 20
9588752.05317273
 10
555060.628322841
 20
9588752.05317273
 10
555060.628321184
 20
9588752.05316786
 10
555002.922435769
 20
9588582.52435973
 10
555002.922435742
 20
9588582.52435965
 10
554958.138164505
 20
9588593.98992119
 10
554894.637875135
 20
9588615.15002228
 10
554845.687652069
 20
9588631.03009819
 10
554845.687652046
 20
9588631.0300982
 10
554766.317289977
 20
9588650.87019409
 10
554740.311413522
 20
9588660.18657961
 10
554688.296934534
 20
9588678.82032725
 10
554688.296934529
 20
9588678.82032725
 10
554627.406656786
 20
9588694.53040305
 10
554600.286533319
 20
9588705.77545639
 10
554573.166409852
 20
9588717.02050973
 10
554507.026108606
 20
9588742.15062922
 10
554418.385705507
 20
9588787.13084142
 10
554340.53535222
 20
9588839.96108919
 10
554322.645271088
 20
9588853.12615084
 10
554304.755189955
 20
9588866.29121249
 10
554304.755189136
 20
9588866.29121299
 10
554274.195051163
 20
9588885.03130055
 10
554245.26532613
 20
9588915.68904253
 10
554244.248927834
 20
9588949.87084527
 10
554307.539153859
 20
9589522.26259373
 10
554279.405849643
 20
9589525.28550587
 10
554279.405849643
 20
9589525.28550587
 10
554219.954808205
 20
9588978.95173629
 10
554213.689491694
 20
9588963.36462228
 10
554163.419261353
 20
9588958.06960069
 10
554113.149031012
 20
9588952.7745791
 10
554042.636024458
 20
9588943.12395678
 10
553932.873492536
 20
9588944.56159385
 10
553826.083005478
 20
9588974.10173587
 10
553774.122767601
 20
9588972.34173065
 10
553692.102392768
 20
9588981.60177786
 10
553649.721608036
 20
9588985.71166113
 10
553649.721608056
 20
9588985.71166122
 10
553714.813820862
 20
9589266.45476316
 10
553701.503274044
 20
9589268.44885258
 10
553657.968008916
 20
9589086.86099228
 10
553633.851535629
 20
9588989.68168029
 10
553613.801739436
 20
9588990.68675504
 10
553593.751943244
 20
9588991.69182978
 10
553534.681673758
 20
9589006.74190238
 10
553365.565919807
 20
9589045.51791164
 10
553315.670923508
 20
9589061.49990264
 10
553288.968891556
 20
9589087.58674581
 10
553290.635257194
 20
9589094.45684976
 10
553334.212732078
 20
9589274.11836901
 10
553317.012653569
 20
9589278.08838825
 10
553317.012653569
 20
9589278.08838825
 10
553315.180415009
 20
9589269.89636973
 10
553307.270521315
 20
9589234.53089
 10
553301.915895946
 20
9589210.59012641
 10
553277.533153391
 20
9589101.57382091
 10
553276.268866145
 20
9589095.92113748
 10
553238.168789916
 20
9589107.43053551
 10
553260.044113472
 20
9589236.04583785
 10
553247.335786161
 20
9589239.14282518
 10
553247.335786161
 20
9589239.14282518
 10
553239.639179672
 20
9589203.07313545
 10
553229.862270539
 20
9589157.25423078
 10
553226.219502068
 20
9589140.18261243
 10
553222.132716876
 20
9589121.03013606
 10
553216.061662707
 20
9589104.70531673
 10
553209.990608538
 20
9589088.3804974
 10
553185.430077579
 20
9589045.10209833
 10
553050.650945704
 20
9589104.88520762
 10
552593.397752195
 20
9589307.70605431
 10
552573.217372196
 20
9589316.65733517
 10
552573.217371297
 20
9589316.65733557
 10
552573.217371297
 20
9589316.65733557
 10
552573.217371297
 20
9589316.65733557
 10
552457.910978813
 20
9589247.52769081
 10
552471.046818435
 20
9589231.63299666
 10
552471.046818435
 20
9589231.63299666
 10
552578.207312358
 20
9589296.45328953
 10
553044.483116205
 20
9589087.92440946
 10
553033.536483585
 20
9589051.97323637
 10
553010.659957813
 20
9589014.75648563
 10
552967.209461623
 20
9589034.3093411
 10
552918.794233561
 20
9589071.23523599
 10
552928.605670558
 20
9589096.71488907
 10
552912.333763001
 20
9589105.04928074
 10
552893.842535597
 20
9589057.30732857
 10
552838.03249923
 20
9589083.4908643
 10
552820.298409217
 20
9589092.72233768
 10
552819.920813402
 20
9589091.98804516
 10
552816.024057146
 20
9589093.81622631
 10
552802.273952805
 20
9589063.47116845
 10
552861.771868388
 20
9589038.11500155
 10
552886.448708338
 20
9589026.58202934
 10
552886.448708339
 20
9589026.58202934
 10
552871.898639884
 20
9588992.18187165
 10
552818.671075605
 20
9589013.76784811
 10
552808.259382285
 20
9589017.63886229
 10
552772.678187985
 20
9589031.87205992
 10
552768.04023228
 20
9589019.08503261
 10
552788.508515258
 20
9589008.211587
 10
552805.748337734
 20
9589002.77192404
 10
552854.698560448
 20
9588978.95181163
 10
552848.480081703
 20
9588968.38086878
 10
552847.574519516
 20
9588966.84148165
 10
552828.238436918
 20
9588933.97160583
 10
552815.008374491
 20
9588899.58144811
 10
552799.138301446
 20
9588891.64141238
 10
552795.23336555
 20
9588893.77492439
 10
552748.535041
 20
9588919.28915524
 10
552744.222131885
 20
9588921.64556867
 10
552739.019581548
 20
9588924.48804902
 10
552739.019581548
 20
9588924.48804902
 10
552739.019581548
 20
9588924.48804902
 10
552732.409550874
 20
9588916.5480128
 10
552758.599552585
 20
9588899.08800906
 10
552776.059749036
 20
9588887.44787636
 10
552774.68537264
 20
9588871.72347924
 10
552773.998184887
 20
9588863.86128576
 10
552731.667989595
 20
9588834.76115401
 10
552692.76500036
 20
9588819.46096356
 10
552679.797751128
 20
9588814.36106284
 10
552610.737436519
 20
9588840.59118743
 10
552610.737436364
 20
9588840.59118747
 10
552474.196813464
 20
9588873.28134544
 10
552432.101421003
 20
9588878.05082585
 10
552432.09662107
 20
9588878.05136969
 10
552432.09662107
 20
9588878.05136969
 10
552400.346475164
 20
9588866.90132004
 10
552378.151372516
 20
9588846.86122891
 10
552355.956269868
 20
9588826.82113777
 10
552309.656058708
 20
9588840.05120122
 10
552151.225336098
 20
9588884.39141403
 10
552139.265281964
 20
9588895.56146614
 10
552139.66528416
 20
9588902.34149736
 10
552140.065286356
 20
9588909.12152857
 10
552192.801819427
 20
9588972.42550284
 10
552297.192056047
 20
9588950.76945021
 10
552366.784291788
 20
9588936.33234222
 10
552404.665628993
 20
9588925.46935114
 10
552404.665628993
 20
9588925.46935114
 10
552415.226910692
 20
9588932.71238087
 10
552415.486548503
 20
9588941.9116648
 10
552383.736403778
 20
9588952.50171531
 10
552224.985679299
 20
9588989.54189452
 10
552210.41605507
 20
9588995.00702114
 10
552196.013887646
 20
9588998.1312536
 10
552181.611720222
 20
9589001.25548606
 10
552181.611720222
 20
9589001.25548606
 10
552170.487484131
 20
9588986.39350665
 10
552164.925366085
 20
9588978.96251694
 10
552156.195362858
 20
9588959.11175802
 10
552107.245136009
 20
9588906.19151684
 10
552047.714864656
 20
9588926.04161149
 10
551972.314521319
 20
9588957.79176181
 10
551916.744268208
 20
9588980.28186841
 10
551854.573984477
 20
9588994.83193876
 10
551713.023340617
 20
9589060.97225087
 10
551713.023340242
 20
9589060.97225105
 10
551625.692943079
 20
9589107.84247164
 10
551609.582869777
 20
9589115.92250973
 10
551601.592833215
 20
9589115.92251016
 10
551601.592833214
 20
9589115.92251016
 10
551596.872811405
 20
9589111.89249184
 10
551592.152789594
 20
9589107.86247353
 10
551577.402721799
 20
9589102.57244994
 10
551549.292593014
 20
9589099.82243876
 10
551528.462497437
 20
9589095.13741828
 10
551507.632401861
 20
9589090.4523978
 10
551487.572310282
 20
9589094.61241804
 10
551477.542264493
 20
9589096.69242815
 10
551428.592041672
 20
9589119.18253437
 10
551333.341608287
 20
9589166.80775884
 10
551238.091174902
 20
9589214.43298331
 10
551236.7711699
 20
9589234.28307484
 10
551223.541110124
 20
9589248.83314257
 10
551202.37101213
 20
9589227.66304616
 10
551194.430974175
 20
9589197.24290641
 10
551150.780775109
 20
9589210.46296963
 10
551068.760402258
 20
9589258.0931934
 10
551011.870144119
 20
9589300.42339143
 10
550992.290108789
 20
9589314.71141923
 10
550962.919921969
 20
9589336.14355859
 10
550906.039664157
 20
9589383.77378104
 10
550890.392426309
 20
9589392.4291869
 10
550843.859381383
 20
9589418.16394277
 10
550829.309315484
 20
9589431.39400449
 10
550814.759249585
 20
9589444.62406621
 10
550830.629324636
 20
9589490.92427872
 10
550835.305485349
 20
9589505.52679163
 10
550850.913497206
 20
9589551.79173628
 10
550880.899562409
 20
9589637.77495276
 10
550903.770720508
 20
9589707.62222933
 10
550917.119803815
 20
9589744.73268093
 10
550928.358527511
 20
9589778.87644526
 10
550927.116768441
 20
9589791.79556001
 10
550915.891644814
 20
9589789.68623887
 10
550900.812292622
 20
9589765.61821104
 10
550858.512660815
 20
9589642.3678786
 10
550839.889371948
 20
9589584.85471105
 10
550831.952689155
 20
9589582.20803939
 10
550816.079262557
 20
9589576.91467572
 10
550789.619142207
 20
9589591.46474415
 10
550789.619142207
 20
9589591.46474415
 10
550789.619142207
 20
9589591.46474415
 10
550773.749069291
 20
9589586.1747206
 10
550743.318927669
 20
9589541.19451493
 10
550714.218792898
 20
9589510.77437628
 10
550691.728689749
 20
9589506.80435916
 10
550646.748484713
 20
9589522.67443464
 10
550592.508238121
 20
9589554.42458376
 10
550543.768016842
 20
9589588.80474473
 10
550486.667757437
 20
9589625.86491847
 10
550439.047542287
 20
9589680.10517088
 10
550455.066463131
 20
9589712.90198459
 10
550470.207110698
 20
9589735.52875636
 10
550485.347758266
 20
9589758.15552813
 10
550496.517329893
 20
9589780.19893003
 10
550485.548218269
 20
9589791.40004409
 10
550485.548218269
 20
9589791.40004409
 10
550473.375678925
 20
9589779.73320904
 10
550447.09858052
 20
9589736.32275845
 10
550423.167470437
 20
9589695.97524485
 10
550395.387342393
 20
9589678.77516703
 10
550349.087131308
 20
9589694.65524261
 10
550317.336986808
 20
9589710.53531742
 10
550306.616632789
 20
9589717.42366685
 10
550298.823161823
 20
9589722.4579062
 10
550255.156703921
 20
9589743.60547304
 10
550195.626433773
 20
9589788.58568338
 10
550145.356205939
 20
9589832.23588713
 10
550144.036201129
 20
9589856.05599698
 10
550193.948383151
 20
9589954.05472119
 10
550241.410945113
 20
9590036.04735546
 10
550231.040898395
 20
9590050.40742218
 10
550231.040898395
 20
9590050.40742218
 10
550188.97836216
 20
9589988.03487805
 10
550173.997515148
 20
9589962.56178602
 10
550144.036204003
 20
9589911.61625301
 10
550114.936068621
 20
9589869.27605939
 10
550092.445964451
 20
9589845.46595083
 10
550082.125917308
 20
9589847.29845981
 10
550051.16577588
 20
9589852.79598674
 10
549983.175466413
 20
9589886.3361448
 10
549945.645296006
 20
9589913.1062701
 10
549909.235130282
 20
9589931.24635557
 10
549840.064816046
 20
9589977.48657222
 10
549817.914993563
 20
9589994.77643602
 10
549773.614514548
 20
9590029.35681466
 10
549763.694469719
 20
9590040.60186699
 10
549753.77442489
 20
9590051.84691932
 10
549747.164396126
 20
9590080.94705377
 10
549765.684483143
 20
9590124.60725402
 10
549823.894754199
 20
9590214.55766557
 10
549807.04525842
 20
9590224.97985478
 10
549783.414839956
 20
9590185.16234444
 10
549744.514385822
 20
9590116.66721851
 10
549727.754307845
 20
9590091.97377224
 10
549719.374268857
 20
9590079.6270491
 10
549688.954129469
 20
9590076.97703846
 10
549648.026443073
 20
9590095.50212592
 10
549634.38388094
 20
9590101.67715508
 10
549563.273558177
 20
9590155.02740457
 10
549501.093276043
 20
9590203.97763332
 10
549490.513228151
 20
9590214.56268265
 10
549479.933180259
 20
9590225.14773197
 10
549461.413096229
 20
9590239.69779998
 10
549427.899743883
 20
9590267.03781917
 10
549411.142868199
 20
9590280.70799153
 10
549401.622825162
 20
9590291.32054093
 10
549373.062696049
 20
9590323.15818912
 10
549391.292781773
 20
9590368.01839492
 10
549459.544349267
 20
9590472.02850902
 10
549451.604313227
 20
9590477.97853684
 10
549443.664277187
 20
9590483.92856467
 10
549443.664277187
 20
9590483.92856467
 10
549443.664277187
 20
9590483.92856467
 10
549409.812869654
 20
9590428.87867447
 10
549372.77269714
 20
9590370.66840808
 10
549341.022549233
 20
9590320.39817801
 10
549313.754406814
 20
9590289.51112839
 10
549292.072323883
 20
9590295.25806464
 10
549269.582221404
 20
9590304.51810846
 10
549244.452106842
 20
9590313.77815241
 10
549224.607016772
 20
9590328.99322354
 10
549204.761926702
 20
9590344.20829467
 10
549165.574153107
 20
9590360.14495432
 10
549162.211732784
 20
9590361.50837656
 10
549156.561707065
 20
9590364.09838878
 10
549125.241564411
 20
9590378.43845645
 10
549097.381437682
 20
9590394.42853156
 10
549069.521319661
 20
9590410.40860162
 10
549069.521310966
 20
9590410.40860661
 10
549058.021258571
 20
9590415.35613
 10
549023.521101388
 20
9590430.19870015
 10
548983.83092076
 20
9590451.36879972
 10
548964.786845112
 20
9590468.82887138
 10
548952.090776928
 20
9590480.46893544
 10
548941.500729582
 20
9590502.95903962
 10
548941.500729699
 20
9590502.95903992
 10
548962.670829164
 20
9590555.87928246
 10
548974.430884394
 20
9590585.43941786
 10
548974.430884493
 20
9590585.4394181
 10
548964.970709027
 20
9590592.48542512
 10
548964.32083859
 20
9590592.96945332
 10
548964.32083859
 20
9590592.96945332
 10
548964.32083859
 20
9590592.96945332
 10
548953.120786687
 20
9590580.47939632
 10
548947.412130782
 20
9590565.59523933
 10
548926.950663446
 20
9590512.21908303
 10
548900.410539641
 20
9590466.31887283
 10
548889.910490745
 20
9590450.03879833
 10
548856.830339115
 20
9590446.07878175
 10
548819.710169721
 20
9590456.67883246
 10
548761.919906001
 20
9590473.16891137
 10
548709.269665848
 20
9590490.51899398
 10
548655.389420534
 20
9590517.24411985
 10
548601.509175219
 20
9590543.96924572
 10
548553.37895629
 20
9590571.98937727
 10
548505.248737361
 20
9590600.00950882
 10
548506.294264363
 20
9590613.23466807
 10
548506.991282365
 20
9590622.05144091
 10
548644.762364002
 20
9590950.14238891
 10
548645.856628446
 20
9590954.76209946
 10
548649.139414548
 20
9590968.62120059
 10
548514.9968544
 20
9591151.78616789
 10
548491.539584784
 20
9591183.81589818
 10
548491.539584784
 20
9591183.81589818
 10
548450.560836129
 20
9591177.0425513
 10
548389.092713147
 20
9591166.88253097
 10
548388.445059592
 20
9591165.42637452
 10
548386.502098929
 20
9591161.05790518
 10
548387.570025594
 20
9591154.47235741
 10
548395.16701495
 20
9591151.78257792
 10
548395.16701495
 20
9591151.78257792
 10
548395.187744138
 20
9591151.78652898
 10
548465.504532694
 20
9591165.18919425
 10
548486.671241709
 20
9591165.40086134
 10
548495.984593676
 20
9591153.75917138
 10
548505.297945644
 20
9591142.11748142
 10
548612.613160353
 20
9590996.06718921
 10
548629.758194657
 20
9590968.97380167
 10
548629.758194657
 20
9590956.27377626
 10
548629.758194657
 20
9590949.92376356
 10
548607.133653529
 20
9590896.79219571
 10
548584.5091124
 20
9590843.66062786
 10
548549.324700395
 20
9590765.35006094
 10
548505.293156184
 20
9590670.73980213
 10
548431.552071247
 20
9590668.42134689
 10
548369.689954281
 20
9590671.68060546
 10
548307.827837316
 20
9590674.93986402
 10
548195.37732305
 20
9590685.51991838
 10
548157.672150861
 20
9590694.11995988
 10
548119.966978673
 20
9590702.72000139
 10
548044.566634856
 20
9590730.50013317
 10
548000.246432976
 20
9590751.00522987
 10
547955.926231095
 20
9590771.51032658
 10
547950.636207855
 20
9590791.36041833
 10
547924.216664671
 20
9590807.69435415
 10
547872.835854052
 20
9590839.46064387
 10
547841.345710779
 20
9590857.66072931
 10
547799.82552134
 20
9590870.73079159
 10
547691.345027231
 20
9590922.32103473
 10
547654.454583274
 20
9590944.010266
 10
547692.287683557
 20
9591026.44251103
 10
547701.92508113
 20
9591033.45154644
 10
547709.97055686
 20
9591041.45011873
 10
547709.970556862
 20
9591041.45011874
 10
547711.39445908
 20
9591054.44322649
 10
547697.518185668
 20
9591067.80427205
 10
547697.518185667
 20
9591067.80427205
 10
547680.424585806
 20
9591064.41054202
 10
547674.560350807
 20
9591051.39864118
 10
547677.046030483
 20
9591044.76733228
 10
547679.531710159
 20
9591038.13602338
 10
547665.389400195
 20
9591008.79107073
 10
547637.104780268
 20
9590950.10116543
 10
547564.344448834
 20
9590984.50132758
 10
547498.194148058
 20
9591026.83152592
 10
547453.218944018
 20
9591065.19670496
 10
547408.243739977
 20
9591103.56188399
 10
547391.752004016
 20
9591114.10841524
 10
547375.260268055
 20
9591124.65494648
 10
547338.21852728
 20
9591153.75917138
 10
547323.137247104
 20
9591167.7821161
 10
547301.176786499
 20
9591184.71548331
 10
547307.693284258
 20
9591198.81232796
 10
547307.346554204
 20
9591212.28792245
 10
547295.885109246
 20
9591214.87804366
 10
547284.731821435
 20
9591206.95130963
 10
547256.103046635
 20
9591169.71219634
 10
547236.262955282
 20
9591159.12214848
 10
547213.772852634
 20
9591165.74218009
 10
547189.952744159
 20
9591177.65223615
 10
547157.326058924
 20
9591204.99225526
 10
547141.012522075
 20
9591218.66242757
 10
547064.2821748
 20
9591302.00281546
 10
546999.461881659
 20
9591377.41316622
 10
546990.861920374
 20
9591390.97060707
 10
546965.061726782
 20
9591431.64341787
 10
546949.121655948
 20
9591476.26362433
 10
547050.615868522
 20
9591612.28300544
 10
547035.767872114
 20
9591623.68632933
 10
546940.351616755
 20
9591496.21371672
 10
546921.401528848
 20
9591472.66360908
 10
546877.751329249
 20
9591477.95363558
 10
546827.481100086
 20
9591499.11373555
 10
546781.580891449
 20
9591530.82388394
 10
546695.180499402
 20
9591604.95422984
 10
546638.300242121
 20
9591671.09453748
 10
546565.539912133
 20
9591737.24484593
 10
546545.699822988
 20
9591772.96501156
 10
546561.919899356
 20
9591816.47521136
 10
546506.992457719
 20
9591896.83873283
 10
546496.62787802
 20
9591888.49395159
 10
546538.311787555
 20
9591821.27348676
 10
546528.499744984
 20
9591788.83508554
 10
546517.254824264
 20
9591768.00023417
 10
546483.519535033
 20
9591705.4947035
 10
546458.115356063
 20
9591701.52267663
 10
546441.179340847
 20
9591698.874675
 10
546372.449026456
 20
9591705.89471065
 10
546306.488724523
 20
9591708.13472412
 10
546227.208361313
 20
9591704.30471025
 10
546180.368147608
 20
9591720.46478697
 10
546129.047913768
 20
9591745.02490263
 10
546073.097659071
 20
9591776.55505066
 10
545984.407255775
 20
9591836.18532977
 10
545931.897017303
 20
9591878.20552597
 10
545899.246869009
 20
9591903.97564633
 10
545832.246352362
 20
9591937.54769772
 10
545882.64995459
 20
9591912.29188763
 97
0
 75
0
 76
1
 98
0
  0
ENDSEC
  0
SECTION
  2
OBJECTS
  0
DICTIONARY
  5
C
330
0
100
AcDbDictionary
281
     1
  3
ACAD_GROUP
350
D
  3
ACAD_LAYOUT
350
1A
  3
ACAD_MLEADERSTYLE
350
43
  3
ACAD_PLOTSETTINGS
350
19
  3
ACAD_PLOTSTYLENAME
350
E
  3
ACAD_TABLESTYLE
350
42
  0
DICTIONARY
  5
D
102
{ACAD_REACTORS
330
C
102
}
330
C
100
AcDbDictionary
281
     1
  0
DICTIONARY
  5
1A
102
{ACAD_REACTORS
330
C
102
}
330
C
100
AcDbDictionary
281
     1
  3
Layout1
350
1E
  3
Model
350
22
  0
DICTIONARY
  5
43
102
{ACAD_REACTORS
330
C
102
}
330
C
100
AcDbDictionary
281
     1
  0
DICTIONARY
  5
19
102
{ACAD_REACTORS
330
C
102
}
330
C
100
AcDbDictionary
281
     1
  0
ACDBDICTIONARYWDFLT
  5
E
102
{ACAD_REACTORS
330
C
102
}
330
C
100
AcDbDictionary
281
     1
  3
Normal
350
F
100
AcDbDictionaryWithDefault
340
F
  0
DICTIONARY
  5
42
102
{ACAD_REACTORS
330
C
102
}
330
C
100
AcDbDictionary
281
     1
  0
LAYOUT
  5
1E
102
{ACAD_REACTORS
330
1A
102
}
330
1A
100
AcDbPlotSettings
  1

  2
none_device
  4

  6

 40
0.0
 41
0.0
 42
0.0
 43
0.0
 44
0.0
 45
0.0
 46
0.0
 47
0.0
 48
0.0
 49
0.0
140
0.0
141
0.0
142
1.0
143
1.0
 70
   688
 72
     0
 73
     0
 74
     5
  7

 75
    16
 76
     0
 77
     2
 78
   300
147
1.0
148
0.0
149
0.0
100
AcDbLayout
  1
Layout1
 70
     1
 71
     1
 10
0.0
 20
0.0
 11
12.0
 21
9.0
 12
0.0
 22
0.0
 32
0.0
 14
1.000000000000000E+20
 24
1.000000000000000E+20
 34
1.000000000000000E+20
 15
-1.000000000000000E+20
 25
-1.000000000000000E+20
 35
-1.000000000000000E+20
146
0.0
 13
0.0
 23
0.0
 33
0.0
 16
1.0
 26
0.0
 36
0.0
 17
0.0
 27
1.0
 37
0.0
 76
     0
330
1B
  0
LAYOUT
  5
22
102
{ACAD_REACTORS
330
1A
102
}
330
1A
100
AcDbPlotSettings
  1

  2
none_device
  4

  6

 40
0.0
 41
0.0
 42
0.0
 43
0.0
 44
0.0
 45
0.0
 46
0.0
 47
0.0
 48
0.0
 49
0.0
140
0.0
141
0.0
142
1.0
143
1.0
 70
  1712
 72
     0
 73
     0
 74
     0
  7

 75
     0
 76
     0
 77
     2
 78
   300
147
1.0
148
0.0
149
0.0
100
AcDbLayout
  1
Model
 70
     1
 71
     0
 10
0.0
 20
0.0
 11
12.0
 21
9.0
 12
0.0
 22
0.0
 32
0.0
 14
30.0
 24
49.75
 34
0.0
 15
130.5
 25
163.1318914119703
 35
0.0
146
0.0
 13
0.0
 23
0.0
 33
0.0
 16
1.0
 26
0.0
 36
0.0
 17
0.0
 27
1.0
 37
0.0
 76
     0
330
1F
331
29
  0
ACDBPLACEHOLDER
  5
F
102
{ACAD_REACTORS
330
E
102
}
330
E
  0
ENDSEC
  0
EOF
